<?xml version="1.0" encoding="UTF-8" standalone="no"?>
<!-- Created with Inkscape (http://www.inkscape.org/) -->

<svg
   xmlns:dc="http://purl.org/dc/elements/1.1/"
   xmlns:cc="http://creativecommons.org/ns#"
   xmlns:rdf="http://www.w3.org/1999/02/22-rdf-syntax-ns#"
   xmlns:svg="http://www.w3.org/2000/svg"
   xmlns="http://www.w3.org/2000/svg"
   xmlns:sodipodi="http://sodipodi.sourceforge.net/DTD/sodipodi-0.dtd"
   xmlns:inkscape="http://www.inkscape.org/namespaces/inkscape"
   width="70mm"
   height="84mm"
   viewBox="0 0 70 84"
   version="1.1"
   id="svg8"
   inkscape:version="0.92.4 (5da689c313, 2019-01-14)"
   sodipodi:docname="stickers.svg"
   inkscape:export-filename="/home/emily/path4679.png"
   inkscape:export-xdpi="300"
   inkscape:export-ydpi="300"
   style="enable-background:new">
  <defs
     id="defs2">
    <filter
       inkscape:collect="always"
       style="color-interpolation-filters:sRGB"
       id="filter4720">
      <feBlend
         inkscape:collect="always"
         mode="lighten"
         in2="BackgroundImage"
         id="feBlend4722" />
    </filter>
  </defs>
  <sodipodi:namedview
     id="base"
     pagecolor="#ffffff"
     bordercolor="#666666"
     borderopacity="1.0"
     inkscape:pageopacity="0.0"
     inkscape:pageshadow="2"
     inkscape:zoom="4.7601812"
     inkscape:cx="168.72261"
     inkscape:cy="243.09487"
     inkscape:document-units="mm"
     inkscape:current-layer="layer1"
     showgrid="false"
     inkscape:window-width="3836"
     inkscape:window-height="2120"
     inkscape:window-x="3840"
     inkscape:window-y="36"
     inkscape:window-maximized="0"
     showguides="true"
     inkscape:guide-bbox="true"
     inkscape:snap-smooth-nodes="true"
     inkscape:snap-grids="false"
     inkscape:snap-to-guides="true"
     inkscape:snap-object-midpoints="true"
     inkscape:snap-nodes="true"
     inkscape:snap-others="true"
     inkscape:object-paths="true"
     inkscape:snap-global="false"
     inkscape:measure-start="0,0"
     inkscape:measure-end="0,0">
    <inkscape:grid
       type="xygrid"
       id="grid3964"
       originx="-118.60184"
       originy="-74.758259" />
  </sodipodi:namedview>
  <metadata
     id="metadata5">
    <rdf:RDF>
      <cc:Work
         rdf:about="">
        <dc:format>image/svg+xml</dc:format>
        <dc:type
           rdf:resource="http://purl.org/dc/dcmitype/StillImage" />
        <dc:title></dc:title>
      </cc:Work>
    </rdf:RDF>
  </metadata>
  <g
     inkscape:label="Layer 1"
     inkscape:groupmode="layer"
     id="layer1"
     style="display:inline"
     transform="translate(-118.60184,-138.24174)">
    <text
       xml:space="preserve"
       style="font-style:normal;font-weight:normal;font-size:10.58333302px;line-height:1.25;font-family:sans-serif;letter-spacing:0px;word-spacing:0px;fill:#000000;fill-opacity:1;stroke:none;stroke-width:0.26458332"
       x="59.868374"
       y="78.29335"
       id="text891"><tspan
         sodipodi:role="line"
         id="tspan889"
         x="59.868374"
         y="87.65712"
         style="stroke-width:0.26458332" /></text>
    <flowRoot
       xml:space="preserve"
       id="flowRoot893"
       style="font-style:normal;font-weight:normal;font-size:40px;line-height:1.25;font-family:sans-serif;letter-spacing:0px;word-spacing:0px;fill:#000000;fill-opacity:1;stroke:none"><flowRegion
         id="flowRegion895"><rect
           id="rect897"
           width="120.20815"
           height="89.802559"
           x="235.46655"
           y="315.71085" /></flowRegion><flowPara
         id="flowPara899" /></flowRoot>    <g
       id="g1059"
       transform="matrix(0.78384269,0,0,0.78384269,236.76172,9.5016685)">
      <path
         style="color:#000000;font-style:normal;font-variant:normal;font-weight:normal;font-stretch:normal;font-size:medium;line-height:normal;font-family:sans-serif;font-variant-ligatures:normal;font-variant-position:normal;font-variant-caps:normal;font-variant-numeric:normal;font-variant-alternates:normal;font-feature-settings:normal;text-indent:0;text-align:start;text-decoration:none;text-decoration-line:none;text-decoration-style:solid;text-decoration-color:#000000;letter-spacing:normal;word-spacing:normal;text-transform:none;writing-mode:lr-tb;direction:ltr;text-orientation:mixed;dominant-baseline:auto;baseline-shift:baseline;text-anchor:start;white-space:normal;shape-padding:0;clip-rule:nonzero;display:inline;overflow:visible;visibility:visible;opacity:1;isolation:auto;mix-blend-mode:normal;color-interpolation:sRGB;color-interpolation-filters:linearRGB;solid-color:#000000;solid-opacity:1;vector-effect:none;fill:#4fb5b5;fill-opacity:1;fill-rule:nonzero;stroke:none;stroke-width:1.02620673;stroke-linecap:butt;stroke-linejoin:miter;stroke-miterlimit:4;stroke-dasharray:none;stroke-dashoffset:0;stroke-opacity:1;color-rendering:auto;image-rendering:auto;shape-rendering:auto;text-rendering:auto;enable-background:accumulate"
         d="m -112.53239,167.37953 c -8.77835,0.052 -14.90271,8.20271 -15.40736,19.51514 3.93314,-7.5178 9.59427,-14.23258 14.33632,-18.33107 -5.64822,5.15717 -10.29097,11.74257 -14.374,19.85225 v 31.325 l 4.61764,4.61683 v 3.68008 l -1.90157,1.90198 -1.68993,-1.68993 h -1.02614 l -1.68993,1.68993 -1.90117,-1.90237 v -4.70583 l 1.53881,-1.53841 v -22.71181 c -4.08301,-5.71432 -8.72581,-10.35452 -14.374,-13.9884 4.74204,2.8879 10.40319,7.6193 14.33632,12.91656 -0.50466,-7.97106 -6.62906,-13.71409 -15.40736,-13.75071 0,8.2552 5.50005,14.43609 14.4189,14.80531 v 22.30216 l -1.53961,1.53961 v 5.5572 l 2.203,2.2018 -2.35332,2.35331 -1.90197,-1.90197 v -6.15685 l -3.37865,-3.37985 h -3.43036 a 1.026142,1.026142 0 0 0 -0.88665,-0.51267 1.026142,1.026142 0 0 0 -1.02614,1.02613 1.026142,1.026142 0 0 0 1.02614,1.02615 1.026142,1.026142 0 0 0 0.88745,-0.51267 h 3.00387 l 2.7786,2.77699 v 6.15686 l 2.203,2.2026 -2.35371,2.35371 -1.90197,-1.90197 v -7.1842 l -2.35292,-2.35251 h -6.50798 a 1.026142,1.026142 0 0 0 -0.88705,-0.51267 1.026142,1.026142 0 0 0 -1.02615,1.02614 1.026142,1.026142 0 0 0 1.02615,1.02614 1.026142,1.026142 0 0 0 0.88745,-0.51266 h 6.0835 l 1.75125,1.75125 v 7.18259 l 2.203,2.2026 -2.35371,2.35372 -1.90197,-1.90198 v -7.18419 l -2.35291,-2.35251 h -3.42956 a 1.026142,1.026142 0 0 0 -0.88705,-0.51267 1.026142,1.026142 0 0 0 -1.02615,1.02614 1.026142,1.026142 0 0 0 1.02615,1.02614 1.026142,1.026142 0 0 0 0.88745,-0.51267 h 3.00507 l 1.75126,1.75126 v 7.18259 l 2.203,2.2026 -1.68993,1.68993 v 1.02614 l 1.68993,1.68992 -1.42458,1.42458 a 1.026142,1.026142 0 0 0 -0.26535,-0.0361 1.026142,1.026142 0 0 0 -1.02614,1.02613 1.026142,1.026142 0 0 0 1.02614,1.02615 1.026142,1.026142 0 0 0 1.02614,-1.02615 1.026142,1.026142 0 0 0 -0.0353,-0.26615 l 1.42377,-1.42378 2.35332,2.35332 -1.90278,1.90157 h -3.67807 l -1.75286,-1.75126 v -14.36679 l -2.35292,-2.35251 h -0.35113 a 1.026142,1.026142 0 0 0 -0.88705,-0.51267 1.026142,1.026142 0 0 0 -1.02615,1.02613 1.026142,1.026142 0 0 0 1.02615,1.02615 1.026142,1.026142 0 0 0 0.85979,-0.46698 l 1.70556,1.70556 v 14.3668 l 2.35291,2.35251 h 4.52946 l 2.2022,-2.20341 2.35371,2.35372 -2.203,2.20259 v 8.63363 l 6.45668,6.45708 h 17.79635 a 1.026142,1.026142 0 0 0 0.88745,0.51347 1.026142,1.026142 0 0 0 1.02614,-1.02614 1.026142,1.026142 0 0 0 -1.02614,-1.02614 1.026142,1.026142 0 0 0 -0.88745,0.51307 h -17.37066 l -5.85663,-5.85703 v -7.78385 l 1.90197,-1.90197 2.35372,2.35371 -2.203,2.2026 v 4.52986 l 4.4056,4.404 h 18.82168 a 1.026142,1.026142 0 0 0 0.88706,0.51346 1.026142,1.026142 0 0 0 1.02613,-1.02613 1.026142,1.026142 0 0 0 -1.02613,-1.02615 1.026142,1.026142 0 0 0 -0.88746,0.51308 h -18.3972 l -3.80394,-3.80395 v -3.68008 l 1.90197,-1.90197 1.68993,1.68993 h 1.02614 l 1.68953,-1.68953 1.90157,1.90197 v 3.07843 l 2.35251,2.35291 h 8.56147 a 1.026142,1.026142 0 0 0 0.88705,0.51307 1.026142,1.026142 0 0 0 1.02614,-1.02614 1.026142,1.026142 0 0 0 -1.02614,-1.02614 1.026142,1.026142 0 0 0 -0.88786,0.51346 h -8.13498 l -1.75125,-1.75285 v -3.07842 l -2.203,-2.2018 2.35332,-2.35332 2.20259,2.20261 h 2.05108 l 1.27507,1.27505 a 1.026142,1.026142 0 0 0 -0.0357,0.26456 1.026142,1.026142 0 0 0 1.02613,1.02614 1.026142,1.026142 0 0 0 1.02615,-1.02614 1.026142,1.026142 0 0 0 -1.02615,-1.02615 1.026142,1.026142 0 0 0 -0.26535,0.0353 l -1.57448,-1.57448 h -2.05268 l -1.90198,-1.90158 2.35372,-2.35371 2.20259,2.2026 h 4.10417 l 3.32694,3.32694 a 1.026142,1.026142 0 0 0 -0.0361,0.26496 1.026142,1.026142 0 0 0 1.02615,1.02614 1.026142,1.026142 0 0 0 1.02613,-1.02614 1.026142,1.026142 0 0 0 -1.02613,-1.02615 1.026142,1.026142 0 0 0 -0.26576,0.0353 l -3.62557,-3.62676 h -4.10576 l -1.90197,-1.90158 2.35371,-2.35371 2.2026,2.2026 h 4.3162 0.13949 a 1.026142,1.026142 0 0 0 0.88706,0.51347 1.026142,1.026142 0 0 0 1.02613,-1.02615 1.026142,1.026142 0 0 0 -1.02613,-1.02613 1.026142,1.026142 0 0 0 -0.88746,0.51307 h -0.13909 -3.89212 l -1.90197,-1.90158 1.68992,-1.68992 v -1.02614 l -1.68992,-1.68993 2.2026,-2.2026 v -4.09655 l 3.47244,-3.3061 a 1.026142,1.026142 0 0 0 0.11945,0.008 1.026142,1.026142 0 0 0 1.02615,-1.02614 1.026142,1.026142 0 0 0 -1.02615,-1.02614 1.026142,1.026142 0 0 0 -1.02614,1.02614 1.026142,1.026142 0 0 0 0.0782,0.39041 l -3.66966,3.4949 v 4.11178 l -1.90157,1.90197 -2.35371,-2.35371 2.2026,-2.2026 v -8.55987 a 1.026142,1.026142 0 0 0 0.51347,-0.88745 1.026142,1.026142 0 0 0 -1.02614,-1.02615 1.026142,1.026142 0 0 0 -1.02614,1.02615 1.026142,1.026142 0 0 0 0.51307,0.88745 v 8.13578 l -1.90157,1.90198 -2.35372,-2.35372 2.2026,-2.20259 v -9.65939 l -4.61725,-4.61884 v -13.28774 c 8.91886,-0.36922 14.4189,-6.55011 14.4189,-14.80531 -8.77829,0.0366 -14.9027,5.77965 -15.40736,13.75071 3.93313,-5.29727 9.59428,-10.02866 14.33633,-12.91657 -5.6482,3.63388 -10.29099,8.2741 -14.37401,13.98841 v 13.69539 l 4.61764,4.61764 v 8.81119 l -1.90157,1.90197 -2.35371,-2.35371 2.2026,-2.2026 v -4.52985 l -4.61724,-4.61684 v -30.92376 c 8.9189,-0.524 14.4189,-9.29618 14.4189,-21.01187 z m -29.81103,54.23844 a 0.47500106,0.47500106 0 0 1 0.47499,0.47498 0.47500106,0.47500106 0 0 1 -0.47499,0.475 0.47500106,0.47500106 0 0 1 -0.47499,-0.475 0.47500106,0.47500106 0 0 1 0.47499,-0.47498 z m -5.13071,3.07842 a 0.47500106,0.47500106 0 0 1 0.47499,0.47499 0.47500106,0.47500106 0 0 1 -0.47499,0.47499 0.47500106,0.47500106 0 0 1 -0.47499,-0.47499 0.47500106,0.47500106 0 0 1 0.47499,-0.47499 z m 30.78426,0 a 0.47500106,0.47500106 0 0 1 0.47499,0.47499 0.47500106,0.47500106 0 0 1 -0.47499,0.47499 0.47500106,0.47500106 0 0 1 -0.47499,-0.47499 0.47500106,0.47500106 0 0 1 0.47499,-0.47499 z m -30.78426,3.07843 a 0.47500106,0.47500106 0 0 1 0.47499,0.47499 0.47500106,0.47500106 0 0 1 -0.47499,0.47499 0.47500106,0.47500106 0 0 1 -0.47499,-0.47499 0.47500106,0.47500106 0 0 1 0.47499,-0.47499 z m 37.96725,1.02614 a 0.47500106,0.47500106 0 0 1 0.475,0.47499 0.47500106,0.47500106 0 0 1 -0.475,0.475 0.47500106,0.47500106 0 0 1 -0.47499,-0.475 0.47500106,0.47500106 0 0 1 0.47499,-0.47499 z m -37.96725,2.05229 a 0.47500106,0.47500106 0 0 1 0.47499,0.47498 0.47500106,0.47500106 0 0 1 -0.47499,0.475 0.47500106,0.47500106 0 0 1 -0.47499,-0.475 0.47500106,0.47500106 0 0 1 0.47499,-0.47498 z m 19.97369,4.87698 c 0.42624,3.41225 2.81939,5.5014 2.81147,7.32168 -0.007,1.55358 -1.26688,2.81612 -2.81147,2.81147 -1.54458,0.005 -2.80512,-1.25789 -2.81187,-2.81147 -0.008,-1.82028 2.38564,-3.90943 2.81187,-7.32168 z m -12.89331,6.00052 a 0.37197654,0.37197654 0 0 1 0.37197,0.37198 0.37197654,0.37197654 0 0 1 -0.37197,0.37198 0.37197654,0.37197654 0 0 1 -0.37198,-0.37198 0.37197654,0.37197654 0 0 1 0.37198,-0.37198 z m 15.2823,1.49993 c -0.0309,0.0194 -0.25582,0.7384 -0.77321,1.34962 -0.4942,0.58381 -1.18317,0.84578 -1.09228,0.83655 0.40117,-0.0406 0.97382,-0.28102 1.27827,-0.60687 0.48391,-0.51792 0.62305,-1.11606 0.59083,-1.57368 -3.7e-4,-0.005 -0.002,-0.007 -0.004,-0.005 z m -16.20583,3.0147 a 0.47500106,0.47500106 0 0 1 0.47499,0.47499 0.47500106,0.47500106 0 0 1 -0.47499,0.47499 0.47500106,0.47500106 0 0 1 -0.47499,-0.47499 0.47500106,0.47500106 0 0 1 0.47499,-0.47499 z m 32.83655,0 a 0.47500106,0.47500106 0 0 1 0.47498,0.47499 0.47500106,0.47500106 0 0 1 -0.47498,0.47499 0.47500106,0.47500106 0 0 1 -0.475,-0.47499 0.47500106,0.47500106 0 0 1 0.475,-0.47499 z m 0,7.183 a 0.47500106,0.47500106 0 0 1 0.47498,0.47498 0.47500106,0.47500106 0 0 1 -0.47498,0.475 0.47500106,0.47500106 0 0 1 -0.475,-0.475 0.47500106,0.47500106 0 0 1 0.475,-0.47498 z m -7.183,1.02613 a 0.47500106,0.47500106 0 0 1 0.475,0.475 0.47500106,0.47500106 0 0 1 -0.475,0.47499 0.47500106,0.47500106 0 0 1 -0.47499,-0.47499 0.47500106,0.47500106 0 0 1 0.47499,-0.475 z m 4.10457,6.15686 a 0.47500106,0.47500106 0 0 1 0.47499,0.47499 0.47500106,0.47500106 0 0 1 -0.47499,0.47499 0.47500106,0.47500106 0 0 1 -0.47499,-0.47499 0.47500106,0.47500106 0 0 1 0.47499,-0.47499 z m 3.07843,3.07842 a 0.47500106,0.47500106 0 0 1 0.47498,0.475 0.47500106,0.47500106 0 0 1 -0.47498,0.47498 0.47500106,0.47500106 0 0 1 -0.475,-0.47498 0.47500106,0.47500106 0 0 1 0.475,-0.475 z m -2.05229,3.07843 a 0.47500106,0.47500106 0 0 1 0.47499,0.47499 0.47500106,0.47500106 0 0 1 -0.47499,0.47499 0.47500106,0.47500106 0 0 1 -0.47499,-0.47499 0.47500106,0.47500106 0 0 1 0.47499,-0.47499 z"
         id="path1044"
         inkscape:connector-curvature="0" />
      <text
         inkscape:export-ydpi="300"
         inkscape:export-xdpi="300"
         id="text1048"
         y="222.31516"
         x="-114.30434"
         style="font-style:normal;font-variant:normal;font-weight:300;font-stretch:normal;font-size:4.93888903px;line-height:1.25;font-family:'Noto Sans';-inkscape-font-specification:'Noto Sans, Light';font-variant-ligatures:normal;font-variant-caps:normal;font-variant-numeric:normal;font-feature-settings:normal;text-align:start;letter-spacing:0px;word-spacing:0px;writing-mode:lr-tb;text-anchor:start;fill:#262626;fill-opacity:1;stroke:none;stroke-width:0.49487978"
         xml:space="preserve"><tspan
           style="font-style:normal;font-variant:normal;font-weight:300;font-stretch:normal;font-size:4.93888903px;font-family:'Noto Sans';-inkscape-font-specification:'Noto Sans, Light';font-variant-ligatures:normal;font-variant-caps:normal;font-variant-numeric:normal;font-feature-settings:normal;text-align:start;writing-mode:lr-tb;text-anchor:start;fill:#262626;fill-opacity:1;stroke-width:0.49487978"
           y="222.31516"
           x="-114.30434"
           id="tspan1046"
           sodipodi:role="line">Stop killing your plants</tspan></text>
      <text
         xml:space="preserve"
         style="font-style:normal;font-variant:normal;font-weight:300;font-stretch:normal;font-size:11.28888893px;line-height:1.25;font-family:'Exo 2';-inkscape-font-specification:'Exo 2, Light';font-variant-ligatures:normal;font-variant-caps:normal;font-variant-numeric:normal;font-feature-settings:normal;text-align:start;letter-spacing:0px;word-spacing:0px;writing-mode:lr-tb;text-anchor:start;fill:#262626;fill-opacity:1;stroke:none;stroke-width:0.49487978"
         x="-114.30434"
         y="215.16196"
         id="text1052"
         inkscape:export-xdpi="300"
         inkscape:export-ydpi="300"><tspan
           sodipodi:role="line"
           id="tspan1050"
           x="-114.30434"
           y="215.16196"
           style="font-style:normal;font-variant:normal;font-weight:300;font-stretch:normal;font-size:11.28888893px;font-family:'Exo 2';-inkscape-font-specification:'Exo 2, Light';font-variant-ligatures:normal;font-variant-caps:normal;font-variant-numeric:normal;font-feature-settings:normal;text-align:start;writing-mode:lr-tb;text-anchor:start;fill:#262626;fill-opacity:1;stroke-width:0.49487978">Waterino</tspan></text>
    </g>
    <g
       transform="matrix(0.78384269,0,0,0.78384269,236.76172,9.5016685)"
       id="g1118"
       style="fill:#ff00ff;stroke-width:6.37883094;stroke-miterlimit:4;stroke-dasharray:none;stroke:#3f3f3f;stroke-opacity:1;stroke-linecap:square;stroke-linejoin:bevel;paint-order:stroke fill markers">
      <g
         aria-label="Stop killing your plants"
         style="font-style:normal;font-variant:normal;font-weight:300;font-stretch:normal;font-size:4.93888903px;line-height:1.25;font-family:'Noto Sans';-inkscape-font-specification:'Noto Sans, Light';font-variant-ligatures:normal;font-variant-caps:normal;font-variant-numeric:normal;font-feature-settings:normal;text-align:start;letter-spacing:0px;word-spacing:0px;writing-mode:lr-tb;text-anchor:start;fill:#ff00ff;fill-opacity:1;stroke:#3f3f3f;stroke-width:6.37883094;stroke-miterlimit:4;stroke-dasharray:none;stroke-opacity:1;stroke-linecap:square;stroke-linejoin:bevel;paint-order:stroke fill markers"
         id="text1112" />
      <g
         aria-label="Waterino"
         style="font-style:normal;font-variant:normal;font-weight:300;font-stretch:normal;font-size:11.28888893px;line-height:1.25;font-family:'Exo 2';-inkscape-font-specification:'Exo 2, Light';font-variant-ligatures:normal;font-variant-caps:normal;font-variant-numeric:normal;font-feature-settings:normal;text-align:start;letter-spacing:0px;word-spacing:0px;writing-mode:lr-tb;text-anchor:start;fill:#ff00ff;fill-opacity:1;stroke:#3f3f3f;stroke-width:6.37883094;stroke-miterlimit:4;stroke-dasharray:none;stroke-opacity:1;stroke-linecap:square;stroke-linejoin:bevel;paint-order:stroke fill markers"
         id="text1116">
        <path
           style="color:#000000;font-style:normal;font-variant:normal;font-weight:300;font-stretch:normal;font-size:11.28888893px;line-height:1.25;font-family:'Exo 2';-inkscape-font-specification:'Exo 2, Light';font-variant-ligatures:normal;font-variant-position:normal;font-variant-caps:normal;font-variant-numeric:normal;font-variant-alternates:normal;font-feature-settings:normal;text-indent:0;text-align:start;text-decoration:none;text-decoration-line:none;text-decoration-style:solid;text-decoration-color:#000000;letter-spacing:0px;word-spacing:0px;text-transform:none;writing-mode:lr-tb;direction:ltr;text-orientation:mixed;dominant-baseline:auto;baseline-shift:baseline;text-anchor:start;white-space:normal;shape-padding:0;clip-rule:nonzero;display:inline;overflow:visible;visibility:visible;opacity:1;isolation:auto;mix-blend-mode:normal;color-interpolation:sRGB;color-interpolation-filters:linearRGB;solid-color:#000000;solid-opacity:1;vector-effect:none;fill:none;fill-opacity:1;fill-rule:nonzero;stroke:#ff00ff;stroke-width:0.12757662;stroke-linecap:round;stroke-linejoin:round;stroke-miterlimit:4;stroke-dasharray:none;stroke-dashoffset:0;stroke-opacity:1;paint-order:stroke fill markers;color-rendering:auto;image-rendering:auto;shape-rendering:auto;text-rendering:auto;enable-background:accumulate"
           d="m -64.933877,212.43026 c 0,-1.3871 -0.149418,-2.94157 -1.341797,-4.31641 -1.192379,-1.37484 -2.983432,-1.75195 -4.353515,-1.75195 -0.92594,0 -1.987411,0.3123 -2.982422,0.8457 -0.846976,-0.53466 -1.780578,-0.8457 -2.583984,-0.8457 -0.567464,0 -1.046758,0.18651 -1.550782,0.32226 -0.16926,-0.0574 -0.343048,-0.10057 -0.519531,-0.1289 -0.145937,-0.45626 -0.386806,-0.93563 -0.806641,-1.35547 -0.79128,-0.79129 -1.821071,-0.99414 -2.43164,-0.99414 h -0.328125 c -0.580659,0 -1.661864,0.1883 -2.478516,1.03515 -0.437836,0.45403 -0.661612,0.94113 -0.791015,1.39063 -0.282658,-0.0809 -0.575141,-0.12228 -0.869141,-0.12305 h -0.552735 c -0.494537,0.001 -0.981981,0.11772 -1.423828,0.33985 -0.818194,-0.31561 -1.638691,-0.48633 -2.416015,-0.48633 -0.670771,0 -1.456341,0.1056 -2.226563,0.37695 -0.05031,-0.0195 -0.101108,-0.0378 -0.152344,-0.0547 -0.524893,-1.11784 -1.647874,-1.83225 -2.882812,-1.83398 h -0.710938 c -1.166008,0.001 -2.238451,0.63852 -2.796874,1.66211 -0.636321,-0.1444 -1.252685,-0.14363 -1.857415,-0.0879 -0.41507,-1.33116 -1.64666,-2.23844 -3.04102,-2.24024 h -0.7793 c -0.73484,8.9e-4 -1.44682,0.25547 -2.01562,0.72071 -0.5484,-0.36715 -1.13399,-0.72071 -1.74414,-0.72071 h -0.84571 c -0.60816,0 -1.19114,0.35365 -1.73828,0.71875 -0.56751,-0.46326 -1.27718,-0.71777 -2.00976,-0.71946 -0.34993,3.3e-4 -0.69986,0.002 -1.04979,0 4.90521,-3.22801 8.07921,-8.76038 7.95018,-15.01301 -0.0558,-2.70214 -0.78801,-3.24186 -3.20313,-3.18945 -2.76811,0.0601 -5.33664,0.59287 -7.6582,1.56836 1.26371,-1.0823 2.43408,-2.2806 3.37891,-3.69336 2.89418,-4.32758 4.27348,-9.95119 4.38476,-16.18945 0.0399,-2.23529 -0.48033,-3.13403 -1.91539,-3.30117 -0.40836,-0.0476 -1.33517,-0.0598 -2.02423,-0.0241 -5.06247,0.26226 -9.51111,2.70422 -12.55423,6.61429 -3.19232,4.10177 -4.99508,9.60088 -5.27148,15.79687 -0.0106,0.27484 -0.008,0.39923 -0.002,0.67411 -3.3643,-3.95486 -8.38096,-6.39805 -14.33191,-6.35566 -2.91873,0.0208 -3.26613,1.11188 -3.20312,3.1875 0.26328,8.67346 5.77243,15.87503 14.41797,17.58203 v 18.20508 l -0.40235,0.40235 -1.12304,-1.12305 c -0.59839,-0.59804 -1.40985,-0.93387 -2.25586,-0.9336 h -2.41211 c -0.58464,-0.30035 -1.22195,-0.51248 -1.89844,-0.51367 h -0.006 c -1.99245,0 -3.62826,1.48428 -4.04102,3.3711 -0.28226,-0.15876 -0.69923,-0.29245 -1.08793,-0.29297 -2.29242,0 -4.21684,1.92634 -4.21684,4.2168 0,0.54234 0.12319,1.05839 0.31836,1.53906 -0.19517,0.48067 -0.31836,0.99672 -0.31836,1.53906 0,0.54234 0.12319,1.05839 0.31836,1.53906 -0.19517,0.48066 -0.31835,0.99674 -0.31836,1.53906 0,2.07085 1.59721,3.7652 3.59179,4.08594 v 12.54492 c -2.7e-4,0.84601 0.33556,1.65747 0.9336,2.25586 l 2.35351,2.35352 c 0.59791,0.59756 1.40858,0.93335 2.25391,0.93359 h 3.69336 v 7.79688 c -2.8e-4,0.84601 0.33555,1.65747 0.93359,2.25586 l 6.45703,6.45703 c 0.59839,0.59804 1.40985,0.93387 2.25586,0.93359 h 16.77735 c 0.58533,0.30095 1.22492,0.51271 1.90434,0.51367 2.11344,0 3.8428,-1.65894 4.11137,-3.70898 1.25804,-0.73778 2.15818,-2.05227 2.15821,-3.58594 -1e-5,-1.95861 -1.43331,-3.57056 -3.27344,-4.01953 -0.19123,-0.78381 -0.37188,-1.46631 -0.94009,-2.02185 2.28887,-0.004 4.21337,-1.92846 4.21337,-4.21884 0,-1.53686 -0.90373,-2.8551 -2.16602,-3.5918 1.26265,-0.73661 2.16602,-2.05468 2.16602,-3.5918 -5e-5,-2.29037 -1.92448,-4.21675 -4.21685,-4.21679 -0.67923,7.9e-4 -1.31712,0.21303 -1.93559,0.51367 l -0.004,-1.42774 c 1.8e-4,-0.54501 -0.13913,-1.07568 -0.39817,-1.54429 l 0.0271,-0.14711 c 0.56624,-0.59299 0.88238,-1.38125 0.88281,-2.20117 v -2.73047 l 1.86719,-1.77735 c 1.58536,-0.61077 2.75195,-2.13978 2.75195,-3.91406 0,-0.99189 -0.41047,-1.87728 -1.00531,-2.60547 1.07775,-8.4e-4 2.08096,-0.54431 2.66952,-1.44531 0.40734,0.18269 0.84849,0.27784 1.29492,0.2793 l 7.654296,-0.0195 c 0.283597,0.3092 0.625409,0.55942 1.005859,0.73632 0.373944,0.17193 0.745171,0.27995 1.101563,0.35157 0.415376,0.0864 0.801536,0.11718 1.169921,0.11718 0.471017,0 1.047552,-0.0797 1.63086,-0.29101 0.05342,0.0236 0.107475,0.0457 0.162109,0.0664 0.26922,0.0958 0.529012,0.15425 0.777342,0.1895 0.249415,0.0333 0.442896,0.0411 0.60742,0.0411 0.8487,0 2.254265,-0.3073 2.779297,-1.15234 l 0.09375,-0.15089 h 6.090075 c 0.604015,0.75876 1.576828,1.27621 2.546643,1.27783 h 0.28125 c 0.958059,-3.7e-4 1.865212,-0.4469 2.470703,-1.18937 h 8.465823 c 0.284652,0.0382 0.556873,0.0707 0.791988,0.0744 0.745632,0.0116 1.702945,-0.12671 2.634766,-0.80858 0.932902,-0.68266 1.572265,-2.09253 1.572265,-3.12694 0,-0.2989 -0.06008,-0.66191 -0.160156,-1.0293 0.388954,-1.52217 -0.388389,-3.10088 -1.832031,-3.7207 -0.326266,-0.13966 -0.650704,-0.23712 -0.965844,-0.30469 -0.385266,-0.0831 -0.757582,-0.11523 -1.226586,-0.081 -0.440708,-0.21187 -0.809325,-0.39353 -1.202148,-0.50097 0.702762,-1.17402 0.949218,-2.41205 0.949218,-3.55275 z"
           id="path1177"
           inkscape:connector-curvature="0"
           sodipodi:nodetypes="cssscsccssscccccscccccccccssccsscccsssscssccccccccsccscsccccccccccccccccccscccccccccccccccccscccsccccccsscsccccc" />
      </g>
    </g>
  </g>
  <g
     inkscape:groupmode="layer"
     id="layer2"
     inkscape:label="Layer 2"
     style="display:none;opacity:0.47300002;filter:url(#filter4720)"
     transform="translate(-118.60184,-138.24174)">
    <path
       style="color:#000000;font-style:normal;font-variant:normal;font-weight:normal;font-stretch:normal;font-size:medium;line-height:normal;font-family:sans-serif;font-variant-ligatures:normal;font-variant-position:normal;font-variant-caps:normal;font-variant-numeric:normal;font-variant-alternates:normal;font-feature-settings:normal;text-indent:0;text-align:start;text-decoration:none;text-decoration-line:none;text-decoration-style:solid;text-decoration-color:#000000;letter-spacing:normal;word-spacing:normal;text-transform:none;writing-mode:lr-tb;direction:ltr;text-orientation:mixed;dominant-baseline:auto;baseline-shift:baseline;text-anchor:start;white-space:normal;shape-padding:0;clip-rule:nonzero;display:inline;overflow:visible;visibility:visible;opacity:1;isolation:auto;mix-blend-mode:normal;color-interpolation:sRGB;color-interpolation-filters:linearRGB;solid-color:#000000;solid-opacity:1;vector-effect:none;fill:#4fb5b5;fill-opacity:1;fill-rule:nonzero;stroke:none;stroke-width:5.00031471;stroke-linecap:butt;stroke-linejoin:miter;stroke-miterlimit:4;stroke-dasharray:none;stroke-dashoffset:0;stroke-opacity:1;color-rendering:auto;image-rendering:auto;shape-rendering:auto;text-rendering:auto;enable-background:accumulate"
       d="m 221.82031,279.57422 v 13.01367 h 1.32422 v -3.92578 h 0.44727 l 3.77539,3.92578 0.91797,-0.89648 -3.54102,-3.64844 3.60547,-3.66797 -0.89649,-0.89648 -3.83984,3.90429 h -0.46875 v -7.80859 z m 13.01953,0 v 1.30078 h 1.30274 v -1.30078 z m 10.41797,0 v 7.08984 c 0.43063,-0.39536 0.86035,-0.79108 1.2793,-1.19726 v -5.89258 z m -50.16797,3.88281 c -0.12236,0.41713 -0.23435,0.83891 -0.34961,1.25977 h 0.1836 l 0.83203,0.9375 v 4.73632 l -0.85352,0.89649 h -1.64062 c -0.0723,0.40516 -0.15274,0.8068 -0.21875,1.21484 h 2.11523 c 0.10667,0 0.29794,0.0222 0.44727,-0.14843 l 1.23828,-1.25977 c 0.064,-0.064 0.19141,-0.23393 0.19141,-0.44727 v -5.22656 c 0,-0.10666 -0.0419,-0.27825 -0.16993,-0.40625 l -1.19531,-1.34375 c -0.0853,-0.0853 -0.25541,-0.21289 -0.46875,-0.21289 z m 39.75,0.0215 v 9.10937 h 1.30274 v -9.10937 z m -35.15429,0.1914 v 6.95703 c 0.41928,-0.49843 0.85666,-0.98683 1.28125,-1.48242 v -4.32226 h 2.98632 l 0.43165,0.41211 c 0.27927,-0.31113 0.5665,-0.61596 0.84765,-0.92579 l -0.57617,-0.55273 c -0.0853,-0.0853 -0.14934,-0.0859 -0.27734,-0.0859 z m 7.30273,2.32227 c -0.2674,0.31726 -0.53048,0.64205 -0.79687,0.96093 l 0.0234,0.0234 v 2.11328 l -2.19726,2.21875 h -1.39844 c -0.33442,0.41649 -0.6652,0.83868 -0.99805,1.25782 h 2.67383 c 0.21334,0 0.36178,-0.12741 0.42578,-0.19141 l 2.56055,-2.58203 c 0.14933,-0.14933 0.19141,-0.3406 0.19141,-0.44727 v -2.625 c 0,-0.21333 -0.12741,-0.38326 -0.19141,-0.44726 z m -6.02148,7.39843 c -0.42606,0.54041 -0.85775,1.07046 -1.28125,1.61524 v 1.48633 h 1.28125 z"
       transform="scale(0.26458333)"
       id="path4596"
       inkscape:connector-curvature="0" />
    <path
       style="font-style:normal;font-variant:normal;font-weight:500;font-stretch:normal;font-size:10.58333302px;line-height:1.25;font-family:'3270Medium Nerd Font';-inkscape-font-specification:'3270Medium Nerd Font, Medium';font-variant-ligatures:normal;font-variant-caps:normal;font-variant-numeric:normal;font-feature-settings:normal;text-align:start;letter-spacing:0px;word-spacing:0px;writing-mode:lr-tb;text-anchor:start;fill:#4fb5b5;fill-opacity:1;stroke:none;stroke-width:0.99999994"
       d="m 217.24023,249.83594 c -0.8187,0.66807 -1.61688,1.3558 -2.40039,2.05859 v 4.4707 h -4.52734 c -0.12852,0.13942 -0.26528,0.27164 -0.39258,0.41211 v 2.0293 h 4.91992 v 12.19922 c 0,0.32 0.11938,0.59984 0.35938,0.83984 l 1.05859,1.0586 c 0.64646,-0.62705 1.30148,-1.24003 1.95313,-1.85938 h -0.45117 l -0.51954,-0.55859 v -11.67969 h 4.91993 v -2.44141 h -4.91993 z m 31.30274,6.52929 -1.96094,0.041 0.041,2.40039 h 0.67968 c 0.4,0 0.63993,0.11938 0.91993,0.35938 0.24,0.28 0.35937,0.5189 0.35937,0.8789 l -0.0391,13.40039 2.40039,-0.0391 v -10.51953 l 4.11914,-4.08008 h 2.59961 l 1.80078,1.71875 v 0.7207 h 2.40039 v -1.20117 c 0,-0.36 -0.12133,-0.6389 -0.36133,-0.8789 l -2.51953,-2.43946 c -0.2,-0.24 -0.47984,-0.36133 -0.83984,-0.36133 l -3.59961,0.041 c -0.32,0 -0.59985,0.11938 -0.83985,0.35937 l -2.75976,2.80079 v -0.72071 c -0.04,-1.28 -1.72039,-2.48047 -2.40039,-2.48047 z m -17.77149,0.24024 c -0.2,0 -0.60086,0.15945 -0.88086,0.43945 l -2.43945,2.52149 c -0.12,0.12 -0.40039,0.39882 -0.40039,0.79882 v 2.63672 c 0.79889,-0.69547 1.59827,-1.38981 2.40039,-2.07226 v -0.084 l 1.75977,-1.80078 h 0.48633 c 0.98309,-0.81881 1.966,-1.64143 2.95117,-2.43945 z m 5.21875,0 c -0.94288,0.80958 -1.88968,1.61498 -2.82031,2.43945 h 4.44141 l 1.7207,1.76172 v 2.87891 h -9.88086 v -1.26367 c -0.80573,0.74408 -1.60373,1.4982 -2.40039,2.2539 v 5.13086 c 0,0.2 0.0403,0.55984 0.32031,0.83984 l 2.48047,2.39844 c 0.12,0.12 0.43883,0.32031 0.79883,0.32031 h 11.08008 V 271.125 h -10.59961 l -1.71875,-1.79883 v -3.16015 h 12.23828 v -5.83985 c 0,-0.2 -0.0794,-0.52078 -0.35937,-0.80078 l -2.35938,-2.48047 c -0.12,-0.12 -0.43984,-0.43945 -0.83984,-0.43945 z m -33.36132,9.89258 c -0.84545,1.36635 -1.65008,2.76124 -2.40039,4.19336 v 0.35351 h -0.17774 c -0.40283,0.77987 -0.80163,1.5629 -1.17578,2.36133 h 6.19336 v -2.32031 h -2.43945 z m 17.09179,5.40234 c -0.4941,0.50862 -0.97811,1.03147 -1.46875,1.54492 h 1.46875 z"
       transform="scale(0.26458333)"
       id="text4634"
       inkscape:connector-curvature="0" />
  </g>
</svg>
