<?xml version="1.0" encoding="UTF-8" standalone="no"?>
<!-- Created with Inkscape (http://www.inkscape.org/) -->

<svg
   xmlns:dc="http://purl.org/dc/elements/1.1/"
   xmlns:cc="http://creativecommons.org/ns#"
   xmlns:rdf="http://www.w3.org/1999/02/22-rdf-syntax-ns#"
   xmlns:svg="http://www.w3.org/2000/svg"
   xmlns="http://www.w3.org/2000/svg"
   xmlns:sodipodi="http://sodipodi.sourceforge.net/DTD/sodipodi-0.dtd"
   xmlns:inkscape="http://www.inkscape.org/namespaces/inkscape"
   width="210mm"
   height="297mm"
   viewBox="0 0 210 297"
   version="1.1"
   id="svg8"
   inkscape:version="0.92.2 5c3e80d, 2017-08-06"
   sodipodi:docname="waterino.svg">
  <defs
     id="defs2" />
  <sodipodi:namedview
     id="base"
     pagecolor="#ffffff"
     bordercolor="#666666"
     borderopacity="1.0"
     inkscape:pageopacity="0.0"
     inkscape:pageshadow="2"
     inkscape:zoom="1"
     inkscape:cx="510.27845"
     inkscape:cy="480.50807"
     inkscape:document-units="mm"
     inkscape:current-layer="layer1"
     showgrid="true"
     inkscape:window-width="1918"
     inkscape:window-height="1175"
     inkscape:window-x="1920"
     inkscape:window-y="23"
     inkscape:window-maximized="0"
     showguides="true"
     inkscape:guide-bbox="true"
     inkscape:snap-smooth-nodes="true"
     inkscape:snap-grids="true"
     inkscape:snap-to-guides="false"
     inkscape:snap-object-midpoints="true">
    <inkscape:grid
       type="xygrid"
       id="grid3964" />
  </sodipodi:namedview>
  <metadata
     id="metadata5">
    <rdf:RDF>
      <cc:Work
         rdf:about="">
        <dc:format>image/svg+xml</dc:format>
        <dc:type
           rdf:resource="http://purl.org/dc/dcmitype/StillImage" />
        <dc:title />
      </cc:Work>
    </rdf:RDF>
  </metadata>
  <g
     inkscape:label="Layer 1"
     inkscape:groupmode="layer"
     id="layer1">
    <g
       id="g3775"
       transform="translate(109.6131,-0.75595238)">
      <g
         id="g3757">
        <path
           sodipodi:nodetypes="ccccc"
           inkscape:connector-curvature="0"
           d="m 136.17383,127.29796 1.13589,0.92132 v 29.66692 h -1.13589 z"
           style="fill:#666666;stroke-width:0.26458332"
           id="path3751" />
        <path
           sodipodi:nodetypes="ccc"
           inkscape:connector-curvature="0"
           d="m 117.39814,109.10951 c 11.819,0.0493 19.91158,8.12057 19.91158,19.10977 -12.15309,0.0175 -19.91158,-8.12057 -19.91158,-19.10977 z"
           style="fill:#666666;stroke-width:0.26458332"
           id="path3753" />
        <path
           sodipodi:nodetypes="cccc"
           inkscape:connector-curvature="0"
           id="path3755"
           d="m 118.77902,110.18526 c 6.83229,4.16087 15.14623,11.28906 20.17447,19.0878 l -1.64377,-1.05378 c -5.26388,-7.36698 -11.24896,-13.34917 -18.5307,-18.03402 z"
           style="fill:#ffffff;stroke:none;stroke-width:0.26458332px;stroke-linecap:butt;stroke-linejoin:miter;stroke-opacity:1" />
      </g>
      <g
         id="g3765"
         transform="matrix(-1,0,0,1,280.68232,8.4284873)">
        <path
           id="path3759"
           style="fill:#666666;stroke-width:0.26458332"
           d="m 136.17383,127.29796 1.13589,0.92132 v 29.66692 h -1.13589 z"
           inkscape:connector-curvature="0"
           sodipodi:nodetypes="ccccc" />
        <path
           id="path3761"
           style="fill:#666666;stroke-width:0.26458332"
           d="m 117.39814,109.10951 c 11.819,0.0493 19.91158,8.12057 19.91158,19.10977 -12.15309,0.0175 -19.91158,-8.12057 -19.91158,-19.10977 z"
           inkscape:connector-curvature="0"
           sodipodi:nodetypes="ccc" />
        <path
           style="fill:#ffffff;stroke:none;stroke-width:0.26458332px;stroke-linecap:butt;stroke-linejoin:miter;stroke-opacity:1"
           d="m 118.77902,110.18526 c 6.83229,4.16087 15.14623,11.28906 20.17447,19.0878 l -1.64377,-1.05378 c -5.26388,-7.36698 -11.24896,-13.34917 -18.5307,-18.03402 z"
           id="path3763"
           inkscape:connector-curvature="0"
           sodipodi:nodetypes="cccc" />
      </g>
      <g
         transform="matrix(-1,0,0,1.4191781,277.09313,-66.230873)"
         id="g3773">
        <path
           sodipodi:nodetypes="ccccc"
           inkscape:connector-curvature="0"
           d="m 136.17383,127.29796 1.13589,0.92132 v 29.66692 h -1.13589 z"
           style="fill:#666666;stroke-width:0.26458332"
           id="path3767" />
        <path
           sodipodi:nodetypes="ccc"
           inkscape:connector-curvature="0"
           d="m 117.39814,109.10951 c 11.819,0.0493 19.91158,8.12057 19.91158,19.10977 -12.15309,0.0175 -19.91158,-8.12057 -19.91158,-19.10977 z"
           style="fill:#666666;stroke-width:0.26458332"
           id="path3769" />
        <path
           sodipodi:nodetypes="cccc"
           inkscape:connector-curvature="0"
           id="path3771"
           d="m 118.77902,110.18526 c 6.83229,4.16087 15.14623,11.28906 20.17447,19.0878 l -1.64377,-1.05378 c -5.26388,-7.36698 -11.24896,-13.34917 -18.5307,-18.03402 z"
           style="fill:#ffffff;stroke:none;stroke-width:0.26458332px;stroke-linecap:butt;stroke-linejoin:miter;stroke-opacity:1" />
      </g>
    </g>
    <g
       id="g4686"
       transform="translate(0.66145834,1.6361063)">
      <path
         sodipodi:nodetypes="cccccccc"
         inkscape:connector-curvature="0"
         id="rect3706"
         d="m 116.34846,106.67157 c 0,10.64272 7.09073,18.61121 18.58904,19.08721 v 27.04331 h 1.32292 V 125.781 c -5.26388,-7.36698 -11.24943,-13.34919 -18.53117,-18.03404 6.11352,3.72313 13.41195,9.82291 18.4826,16.65221 -0.65062,-10.2764 -8.54629,-17.68039 -19.86339,-17.7276 z"
         style="fill:#666666;stroke-width:0.26458332" />
      <path
         sodipodi:nodetypes="cccccccc"
         inkscape:connector-curvature="0"
         style="fill:#666666;stroke-width:0.31519794"
         d="m 158.81831,89.937871 c 0,15.104019 -7.09078,26.412789 -18.58914,27.088339 v 38.42171 h -1.32292 v -38.39019 c 5.2639,-10.45511 11.24948,-18.944996 18.53125,-25.593679 -6.11353,5.283822 -13.41201,13.940559 -18.48267,23.632619 0.65061,-14.58415 8.54632,-25.091813 19.86348,-25.158799 z"
         id="path3960" />
      <path
         sodipodi:nodetypes="cccccccc"
         inkscape:connector-curvature="0"
         style="fill:#666666;stroke-width:0.26458332"
         d="m 162.78697,116.97141 c 0,10.64272 -7.09074,18.6112 -18.58905,19.08721 v 19.3893 H 142.875 v -19.36709 c 5.26388,-7.36697 11.24943,-13.34918 18.53117,-18.03403 -6.11351,3.72313 -13.41195,9.82291 -18.48259,16.65221 0.65061,-10.2764 8.54628,-17.6804 19.86339,-17.7276 z"
         id="path3962" />
    </g>
    <path
       style="fill:#666666;stroke-width:0.28470626;stroke:none"
       d="m 140.22916,170 h -1.32291 l -17.19816,17.19792 2.5e-4,1.32292 17.19791,17.19791 h 1.32291 l 17.19793,-17.19791 v -1.32292 z"
       id="rect3699"
       inkscape:connector-curvature="0"
       sodipodi:nodetypes="ccccccccc" />
    <g
       id="g4105">
      <path
         style="fill:#666666;stroke-width:0.28470626"
         d="m 265.00109,199.10416 -3.0636,2.64583 v 26.45833 h 29.10417 v -29.10416 z"
         id="path4030"
         inkscape:connector-curvature="0"
         sodipodi:nodetypes="cccccc" />
      <rect
         style="fill:#666666;stroke:none;stroke-width:0.26458332"
         id="rect4032"
         width="1.3229166"
         height="3.96875"
         x="285.75"
         y="195.13542" />
      <rect
         style="fill:#666666;stroke:none;stroke-width:0.26458332"
         id="rect4034"
         width="1.3229166"
         height="3.96875"
         x="281.78125"
         y="195.13542" />
      <rect
         style="fill:#666666;stroke:none;stroke-width:0.26458332"
         id="rect4036"
         width="1.3229166"
         height="3.96875"
         x="277.8125"
         y="195.13542" />
      <rect
         style="fill:#666666;stroke:none;stroke-width:0.26458332"
         id="rect4038"
         width="1.3229166"
         height="3.96875"
         x="273.84375"
         y="195.13542" />
      <rect
         style="fill:#666666;stroke:none;stroke-width:0.26458332"
         id="rect4040"
         width="1.3229166"
         height="3.96875"
         x="269.875"
         y="195.13542" />
      <rect
         style="fill:#666666;stroke:none;stroke-width:0.26458332"
         id="rect4042"
         width="1.3229166"
         height="3.96875"
         x="265.90625"
         y="195.13542" />
      <rect
         y="228.20833"
         x="285.75"
         height="3.96875"
         width="1.3229166"
         id="rect4044"
         style="fill:#666666;stroke:none;stroke-width:0.26458332" />
      <rect
         y="228.20833"
         x="281.78125"
         height="3.96875"
         width="1.3229166"
         id="rect4046"
         style="fill:#666666;stroke:none;stroke-width:0.26458332" />
      <rect
         y="228.20833"
         x="277.8125"
         height="3.96875"
         width="1.3229166"
         id="rect4048"
         style="fill:#666666;stroke:none;stroke-width:0.26458332" />
      <rect
         y="228.20833"
         x="273.84375"
         height="3.96875"
         width="1.3229166"
         id="rect4050"
         style="fill:#666666;stroke:none;stroke-width:0.26458332" />
      <rect
         y="228.20833"
         x="269.875"
         height="3.96875"
         width="1.3229166"
         id="rect4052"
         style="fill:#666666;stroke:none;stroke-width:0.26458332" />
      <rect
         y="228.20833"
         x="265.90625"
         height="3.96875"
         width="1.3229166"
         id="rect4054"
         style="fill:#666666;stroke:none;stroke-width:0.26458332" />
      <rect
         style="fill:#666666;stroke:none;stroke-width:0.26458332"
         id="rect4056"
         width="1.3229166"
         height="3.96875"
         x="222.91667"
         y="-295.01041"
         transform="rotate(90)" />
      <rect
         style="fill:#666666;stroke:none;stroke-width:0.26458332"
         id="rect4058"
         width="1.3229166"
         height="3.96875"
         x="218.94792"
         y="-295.01041"
         transform="rotate(90)" />
      <rect
         style="fill:#666666;stroke:none;stroke-width:0.26458332"
         id="rect4060"
         width="1.3229166"
         height="3.96875"
         x="214.97917"
         y="-295.01041"
         transform="rotate(90)" />
      <rect
         style="fill:#666666;stroke:none;stroke-width:0.26458332"
         id="rect4062"
         width="1.3229166"
         height="3.96875"
         x="211.01042"
         y="-295.01041"
         transform="rotate(90)" />
      <rect
         style="fill:#666666;stroke:none;stroke-width:0.26458332"
         id="rect4064"
         width="1.3229166"
         height="3.96875"
         x="207.04167"
         y="-295.01041"
         transform="rotate(90)" />
      <rect
         style="fill:#666666;stroke:none;stroke-width:0.26458332"
         id="rect4066"
         width="1.3229166"
         height="3.96875"
         x="203.07292"
         y="-295.01041"
         transform="rotate(90)" />
      <rect
         transform="rotate(90)"
         y="-261.93747"
         x="222.91667"
         height="3.96875"
         width="1.3229166"
         id="rect4068"
         style="fill:#666666;stroke:none;stroke-width:0.26458332" />
      <rect
         transform="rotate(90)"
         y="-261.93747"
         x="218.94792"
         height="3.96875"
         width="1.3229166"
         id="rect4070"
         style="fill:#666666;stroke:none;stroke-width:0.26458332" />
      <rect
         transform="rotate(90)"
         y="-261.93747"
         x="214.97917"
         height="3.96875"
         width="1.3229166"
         id="rect4072"
         style="fill:#666666;stroke:none;stroke-width:0.26458332" />
      <rect
         transform="rotate(90)"
         y="-261.93747"
         x="211.01042"
         height="3.96875"
         width="1.3229166"
         id="rect4074"
         style="fill:#666666;stroke:none;stroke-width:0.26458332" />
      <rect
         transform="rotate(90)"
         y="-261.93747"
         x="207.04167"
         height="3.96875"
         width="1.3229166"
         id="rect4076"
         style="fill:#666666;stroke:none;stroke-width:0.26458332" />
      <rect
         transform="rotate(90)"
         y="-261.93747"
         x="203.07292"
         height="3.96875"
         width="1.3229166"
         id="rect4078"
         style="fill:#666666;stroke:none;stroke-width:0.26458332" />
    </g>
    <circle
       id="path122"
       cx="122.89896"
       cy="187.85938"
       r="0.66145831"
       style="stroke-width:0.33072916;stroke:#666666;fill:#ffffff" />
    <path
       style="fill:none;stroke:#666666;stroke-width:1.32299995;stroke-linecap:butt;stroke-linejoin:miter;stroke-miterlimit:4;stroke-dasharray:none;stroke-opacity:1"
       d="M 141.55208,173.96875 145.52083,170 v -5.29167 l -5.29166,-5.29166 v -6.61459"
       id="path4639"
       inkscape:connector-curvature="0"
       sodipodi:nodetypes="ccccc" />
    <path
       sodipodi:nodetypes="ccccc"
       inkscape:connector-curvature="0"
       id="path4641"
       d="m 145.52083,177.9375 3.96875,-3.96875 0,-11.90625 -5.29166,-5.29167 0,-3.96875"
       style="fill:none;stroke:#666666;stroke-width:1.32299995;stroke-linecap:butt;stroke-linejoin:miter;stroke-miterlimit:4;stroke-dasharray:none;stroke-opacity:1" />
    <path
       style="fill:none;stroke:#666666;stroke-width:1.32299995;stroke-linecap:butt;stroke-linejoin:miter;stroke-miterlimit:4;stroke-dasharray:none;stroke-opacity:1"
       d="m 149.48958,181.90625 3.96875,-3.96875 0,-11.90625"
       id="path4643"
       inkscape:connector-curvature="0"
       sodipodi:nodetypes="ccc" />
    <path
       sodipodi:nodetypes="cccc"
       inkscape:connector-curvature="0"
       id="path4645"
       d="m 153.45833,185.875 3.96875,-3.96875 v -5.29167 l 5.55625,-5.29166"
       style="fill:none;stroke:#666666;stroke-width:1.32299995;stroke-linecap:butt;stroke-linejoin:miter;stroke-miterlimit:4;stroke-dasharray:none;stroke-opacity:1" />
    <g
       id="g4659"
       transform="rotate(-90,139.56771,187.85937)"
       style="stroke:#666666">
      <path
         style="fill:none;stroke:#666666;stroke-width:1.32299995;stroke-linecap:butt;stroke-linejoin:miter;stroke-miterlimit:4;stroke-dasharray:none;stroke-opacity:1"
         d="M 141.55208,173.96875 145.52083,170 l 10.58333,-1e-5 1.32292,-1.32291 v -3.96875"
         id="path4647"
         inkscape:connector-curvature="0"
         sodipodi:nodetypes="ccccc" />
      <path
         sodipodi:nodetypes="ccccc"
         inkscape:connector-curvature="0"
         id="path4649"
         d="m 145.52083,177.9375 3.96875,-3.96875 9.26042,-1e-5 2.64583,-2.64583 v -9.26042"
         style="fill:none;stroke:#666666;stroke-width:1.32299995;stroke-linecap:butt;stroke-linejoin:miter;stroke-miterlimit:4;stroke-dasharray:none;stroke-opacity:1" />
      <path
         style="fill:none;stroke:#666666;stroke-width:1.32299995;stroke-linecap:butt;stroke-linejoin:miter;stroke-miterlimit:4;stroke-dasharray:none;stroke-opacity:1"
         d="m 149.48958,181.90625 3.96875,-3.96875 7.9375,-1e-5 3.96875,-3.96875 v -5.29166"
         id="path4651"
         inkscape:connector-curvature="0"
         sodipodi:nodetypes="ccccc" />
      <path
         sodipodi:nodetypes="ccccc"
         inkscape:connector-curvature="0"
         id="path4653"
         d="m 153.45833,185.875 3.96875,-3.96875 5.29167,-1e-5 2.64583,2.64584 h 9.26042"
         style="fill:none;stroke:#666666;stroke-width:1.32299995;stroke-linecap:butt;stroke-linejoin:miter;stroke-miterlimit:4;stroke-dasharray:none;stroke-opacity:1" />
    </g>
    <g
       transform="rotate(-180,139.56771,187.85938)"
       id="g4671"
       style="stroke:#666666">
      <path
         sodipodi:nodetypes="cccc"
         inkscape:connector-curvature="0"
         id="path4663"
         d="M 141.55208,173.96875 145.52083,170 v -5.29167 l 5.55625,-5.29166"
         style="fill:none;stroke:#666666;stroke-width:1.32299995;stroke-linecap:butt;stroke-linejoin:miter;stroke-miterlimit:4;stroke-dasharray:none;stroke-opacity:1" />
      <path
         style="fill:none;stroke:#666666;stroke-width:1.32299995;stroke-linecap:butt;stroke-linejoin:miter;stroke-miterlimit:4;stroke-dasharray:none;stroke-opacity:1"
         d="m 145.52083,177.9375 3.96875,-3.96875 v -5.29167 l 5.55625,-5.29166"
         id="path4665"
         inkscape:connector-curvature="0"
         sodipodi:nodetypes="cccc" />
      <path
         sodipodi:nodetypes="cccccc"
         inkscape:connector-curvature="0"
         id="path4667"
         d="m 149.48958,181.90625 3.96875,-3.96875 3.96875,0 2.64583,2.64583 1.32292,18.52084 3.96875,2.64583"
         style="fill:none;stroke:#666666;stroke-width:1.32299995;stroke-linecap:butt;stroke-linejoin:miter;stroke-miterlimit:4;stroke-dasharray:none;stroke-opacity:1" />
      <path
         style="fill:none;stroke:#666666;stroke-width:1.32299995;stroke-linecap:butt;stroke-linejoin:miter;stroke-miterlimit:4;stroke-dasharray:none;stroke-opacity:1"
         d="m 153.45833,185.875 3.96875,-3.96875"
         id="path4669"
         inkscape:connector-curvature="0"
         sodipodi:nodetypes="cc" />
    </g>
    <g
       id="g4681"
       transform="rotate(90,139.56771,187.85938)"
       style="stroke:#666666">
      <path
         style="fill:none;stroke:#666666;stroke-width:1.32299995;stroke-linecap:butt;stroke-linejoin:miter;stroke-miterlimit:4;stroke-dasharray:none;stroke-opacity:1"
         d="M 141.55208,173.96875 145.52083,170 v -5.29167 l 5.55625,-5.29166"
         id="path4673"
         inkscape:connector-curvature="0"
         sodipodi:nodetypes="cccc" />
      <path
         sodipodi:nodetypes="cccc"
         inkscape:connector-curvature="0"
         id="path4675"
         d="m 145.52083,177.9375 3.96875,-3.96875 v -5.29167 l 5.55625,-5.29166"
         style="fill:none;stroke:#666666;stroke-width:1.32299995;stroke-linecap:butt;stroke-linejoin:miter;stroke-miterlimit:4;stroke-dasharray:none;stroke-opacity:1" />
      <path
         style="fill:none;stroke:#666666;stroke-width:1.32299995;stroke-linecap:butt;stroke-linejoin:miter;stroke-miterlimit:4;stroke-dasharray:none;stroke-opacity:1"
         d="m 149.48958,181.90625 3.96875,-3.96875 v -5.29167 l 5.55625,-5.29166"
         id="path4677"
         inkscape:connector-curvature="0"
         sodipodi:nodetypes="cccc" />
      <path
         sodipodi:nodetypes="cccc"
         inkscape:connector-curvature="0"
         id="path4679"
         d="m 153.45833,185.875 3.96875,-3.96875 v -5.29167 l 5.55625,-5.29166"
         style="fill:none;stroke:#666666;stroke-width:1.32299995;stroke-linecap:butt;stroke-linejoin:miter;stroke-miterlimit:4;stroke-dasharray:none;stroke-opacity:1" />
    </g>
    <circle
       style="fill:#666666;stroke:none;stroke-width:1.32300007;stroke-linejoin:miter;stroke-miterlimit:4;stroke-dasharray:none"
       id="path4690"
       cx="153.45833"
       cy="166.03125"
       r="1.3229166" />
    <circle
       r="1.3229166"
       cy="162.0625"
       cx="120.38541"
       id="circle4692"
       style="fill:#666666;stroke:none;stroke-width:1.32300007;stroke-linejoin:miter;stroke-miterlimit:4;stroke-dasharray:none" />
    <circle
       style="fill:#666666;stroke:none;stroke-width:1.32300007;stroke-linejoin:miter;stroke-miterlimit:4;stroke-dasharray:none"
       id="circle4694"
       cx="121.70834"
       cy="193.8125"
       r="1.3229166" />
  </g>
</svg>
