<?xml version="1.0" encoding="UTF-8" standalone="no"?>
<!-- Created with Inkscape (http://www.inkscape.org/) -->

<svg
   xmlns:dc="http://purl.org/dc/elements/1.1/"
   xmlns:cc="http://creativecommons.org/ns#"
   xmlns:rdf="http://www.w3.org/1999/02/22-rdf-syntax-ns#"
   xmlns:svg="http://www.w3.org/2000/svg"
   xmlns="http://www.w3.org/2000/svg"
   xmlns:sodipodi="http://sodipodi.sourceforge.net/DTD/sodipodi-0.dtd"
   xmlns:inkscape="http://www.inkscape.org/namespaces/inkscape"
   width="210mm"
   height="297mm"
   viewBox="0 0 210 297"
   version="1.1"
   id="svg8"
   inkscape:version="0.92.2 5c3e80d, 2017-08-06"
   sodipodi:docname="waterino_101.svg">
  <defs
     id="defs2" />
  <sodipodi:namedview
     id="base"
     pagecolor="#ffffff"
     bordercolor="#666666"
     borderopacity="1.0"
     inkscape:pageopacity="0.0"
     inkscape:pageshadow="2"
     inkscape:zoom="4"
     inkscape:cx="146.31952"
     inkscape:cy="686.85539"
     inkscape:document-units="mm"
     inkscape:current-layer="layer1"
     showgrid="false"
     inkscape:window-width="1918"
     inkscape:window-height="1175"
     inkscape:window-x="1920"
     inkscape:window-y="23"
     inkscape:window-maximized="0"
     showguides="true"
     inkscape:guide-bbox="true"
     inkscape:snap-smooth-nodes="true"
     inkscape:snap-grids="false"
     inkscape:snap-to-guides="true"
     inkscape:snap-object-midpoints="true"
     inkscape:snap-nodes="true"
     inkscape:snap-others="true"
     inkscape:object-paths="true">
    <inkscape:grid
       type="xygrid"
       id="grid3964" />
  </sodipodi:namedview>
  <metadata
     id="metadata5">
    <rdf:RDF>
      <cc:Work
         rdf:about="">
        <dc:format>image/svg+xml</dc:format>
        <dc:type
           rdf:resource="http://purl.org/dc/dcmitype/StillImage" />
        <dc:title></dc:title>
      </cc:Work>
    </rdf:RDF>
  </metadata>
  <g
     inkscape:label="Layer 1"
     inkscape:groupmode="layer"
     id="layer1">
    <g
       id="g4681"
       transform="rotate(90,126.07396,99.223962)"
       style="stroke:#666666"
       inkscape:export-xdpi="96"
       inkscape:export-ydpi="96">
      <path
         style="color:#000000;font-style:normal;font-variant:normal;font-weight:normal;font-stretch:normal;font-size:medium;line-height:normal;font-family:sans-serif;font-variant-ligatures:normal;font-variant-position:normal;font-variant-caps:normal;font-variant-numeric:normal;font-variant-alternates:normal;font-feature-settings:normal;text-indent:0;text-align:start;text-decoration:none;text-decoration-line:none;text-decoration-style:solid;text-decoration-color:#000000;letter-spacing:normal;word-spacing:normal;text-transform:none;writing-mode:lr-tb;direction:ltr;text-orientation:mixed;dominant-baseline:auto;baseline-shift:baseline;text-anchor:start;white-space:normal;shape-padding:0;clip-rule:nonzero;display:inline;overflow:visible;visibility:visible;opacity:1;isolation:auto;mix-blend-mode:normal;color-interpolation:sRGB;color-interpolation-filters:linearRGB;solid-color:#000000;solid-opacity:1;vector-effect:none;fill:#666666;fill-opacity:1;fill-rule:nonzero;stroke:none;stroke-width:5.00031471;stroke-linecap:butt;stroke-linejoin:miter;stroke-miterlimit:4;stroke-dasharray:none;stroke-dashoffset:0;stroke-opacity:1;color-rendering:auto;image-rendering:auto;shape-rendering:auto;text-rendering:auto;enable-background:accumulate"
         d="M 214.25781 61.921875 C 171.48429 62.175028 141.64259 101.89052 139.18359 157.01172 C 158.34829 120.38031 185.93285 87.661757 209.03906 67.691406 C 181.51741 92.820287 158.89506 124.90845 139 164.42383 L 139 317.05859 L 161.5 339.55469 L 161.5 357.48633 L 152.23438 366.75391 L 144 358.51953 L 139 358.51953 L 130.76562 366.75391 L 121.50195 357.48438 L 121.50195 334.55469 L 129 327.05859 L 129 216.39258 C 109.10502 188.54887 86.482436 165.93894 58.960938 148.23242 C 82.067116 162.30409 109.65174 185.35839 128.81641 211.16992 C 126.35737 172.32998 96.515478 144.3464 53.742188 144.16797 C 53.742188 184.39242 80.541821 214.50954 124 216.30859 L 124 324.97852 L 116.49805 332.48047 L 116.49805 359.55859 L 127.23242 370.28711 L 115.76562 381.75391 L 106.49805 372.48633 L 106.49805 342.48633 L 90.035156 326.01758 L 73.320312 326.01758 A 4.9999997 4.9999997 0 0 0 69 323.51953 A 4.9999997 4.9999997 0 0 0 64 328.51953 A 4.9999997 4.9999997 0 0 0 69 333.51953 A 4.9999997 4.9999997 0 0 0 73.324219 331.02148 L 87.960938 331.02148 L 101.5 344.55273 L 101.5 374.55273 L 112.23438 385.28516 L 100.76562 396.75391 L 91.498047 387.48633 L 91.498047 352.48047 L 80.033203 341.01758 L 48.322266 341.01758 A 4.9999997 4.9999997 0 0 0 44 338.51953 A 4.9999997 4.9999997 0 0 0 39 343.51953 A 4.9999997 4.9999997 0 0 0 44 348.51953 A 4.9999997 4.9999997 0 0 0 48.324219 346.02148 L 77.966797 346.02148 L 86.5 354.55469 L 86.5 389.55273 L 97.234375 400.28516 L 85.765625 411.75391 L 76.498047 402.48633 L 76.498047 367.48047 L 65.033203 356.01758 L 48.322266 356.01758 A 4.9999997 4.9999997 0 0 0 44 353.51953 A 4.9999997 4.9999997 0 0 0 39 358.51953 A 4.9999997 4.9999997 0 0 0 44 363.51953 A 4.9999997 4.9999997 0 0 0 48.324219 361.02148 L 62.966797 361.02148 L 71.5 369.55469 L 71.5 404.55273 L 82.234375 415.28516 L 74 423.51953 L 74 428.51953 L 82.234375 436.75391 L 75.292969 443.69531 A 4.9999997 4.9999997 0 0 0 74 443.51953 A 4.9999997 4.9999997 0 0 0 69 448.51953 A 4.9999997 4.9999997 0 0 0 74 453.51953 A 4.9999997 4.9999997 0 0 0 79 448.51953 A 4.9999997 4.9999997 0 0 0 78.828125 447.22266 L 85.765625 440.28516 L 97.232422 451.75195 L 87.960938 461.01758 L 70.039062 461.01758 L 61.498047 452.48438 L 61.498047 382.48047 L 50.033203 371.01758 L 48.322266 371.01758 A 4.9999997 4.9999997 0 0 0 44 368.51953 A 4.9999997 4.9999997 0 0 0 39 373.51953 A 4.9999997 4.9999997 0 0 0 44 378.51953 A 4.9999997 4.9999997 0 0 0 48.189453 376.24414 L 56.5 384.55469 L 56.5 454.55859 L 67.964844 466.02148 L 90.035156 466.02148 L 100.76562 455.28516 L 112.23438 466.75391 L 101.5 477.48633 L 101.5 519.55469 L 132.96094 551.01758 L 219.67578 551.01758 A 4.9999997 4.9999997 0 0 0 224 553.51953 A 4.9999997 4.9999997 0 0 0 229 548.51953 A 4.9999997 4.9999997 0 0 0 224 543.51953 A 4.9999997 4.9999997 0 0 0 219.67578 546.01953 L 135.03516 546.01953 L 106.49805 517.48047 L 106.49805 479.55273 L 115.76562 470.28516 L 127.23438 481.75391 L 116.5 492.48633 L 116.5 514.55859 L 137.9668 536.01758 L 229.67773 536.01758 A 4.9999997 4.9999997 0 0 0 234 538.51953 A 4.9999997 4.9999997 0 0 0 239 533.51953 A 4.9999997 4.9999997 0 0 0 234 528.51953 A 4.9999997 4.9999997 0 0 0 229.67578 531.01953 L 140.0332 531.01953 L 121.49805 512.48438 L 121.49805 494.55273 L 130.76562 485.28516 L 139 493.51953 L 144 493.51953 L 152.23242 485.28711 L 161.49805 494.55469 L 161.49805 509.55469 L 172.96094 521.01953 L 214.67773 521.01953 A 4.9999997 4.9999997 0 0 0 219 523.51953 A 4.9999997 4.9999997 0 0 0 224 518.51953 A 4.9999997 4.9999997 0 0 0 219 513.51953 A 4.9999997 4.9999997 0 0 0 214.67383 516.02148 L 175.03516 516.02148 L 166.50195 507.48047 L 166.50195 492.48047 L 155.76758 481.75195 L 167.23438 470.28516 L 177.9668 481.01758 L 187.96094 481.01758 L 194.17383 487.23047 A 4.9999997 4.9999997 0 0 0 194 488.51953 A 4.9999997 4.9999997 0 0 0 199 493.51953 A 4.9999997 4.9999997 0 0 0 204 488.51953 A 4.9999997 4.9999997 0 0 0 199 483.51953 A 4.9999997 4.9999997 0 0 0 197.70703 483.69141 L 190.03516 476.01953 L 180.0332 476.01953 L 170.76562 466.75391 L 182.23438 455.28516 L 192.9668 466.01758 L 212.96484 466.01758 L 229.17578 482.22852 A 4.9999997 4.9999997 0 0 0 229 483.51953 A 4.9999997 4.9999997 0 0 0 234 488.51953 A 4.9999997 4.9999997 0 0 0 239 483.51953 A 4.9999997 4.9999997 0 0 0 234 478.51953 A 4.9999997 4.9999997 0 0 0 232.70508 478.69141 L 215.03906 461.01953 L 195.0332 461.01953 L 185.76562 451.75391 L 197.23438 440.28516 L 207.9668 451.01758 L 228.99805 451.01758 L 229.67773 451.01758 A 4.9999997 4.9999997 0 0 0 234 453.51953 A 4.9999997 4.9999997 0 0 0 239 448.51953 A 4.9999997 4.9999997 0 0 0 234 443.51953 A 4.9999997 4.9999997 0 0 0 229.67578 446.01953 L 228.99805 446.01953 L 210.0332 446.01953 L 200.76562 436.75391 L 209 428.51953 L 209 423.51953 L 200.76562 415.28516 L 211.49805 404.55273 L 211.49805 384.5918 L 228.41797 368.48242 A 4.9999997 4.9999997 0 0 0 229 368.51953 A 4.9999997 4.9999997 0 0 0 234 363.51953 A 4.9999997 4.9999997 0 0 0 229 358.51953 A 4.9999997 4.9999997 0 0 0 224 363.51953 A 4.9999997 4.9999997 0 0 0 224.38086 365.42188 L 206.5 382.45117 L 206.5 402.48633 L 197.23438 411.75391 L 185.76562 400.28516 L 196.49805 389.55273 L 196.49805 347.84375 A 4.9999997 4.9999997 0 0 0 199 343.51953 A 4.9999997 4.9999997 0 0 0 194 338.51953 A 4.9999997 4.9999997 0 0 0 189 343.51953 A 4.9999997 4.9999997 0 0 0 191.5 347.84375 L 191.5 387.48633 L 182.23438 396.75391 L 170.76562 385.28516 L 181.49805 374.55273 L 181.49805 327.48633 L 159 304.98047 L 159 240.23633 C 202.45818 238.43724 229.25781 208.32016 229.25781 168.0957 C 186.48448 168.2741 156.64259 196.25772 154.18359 235.09766 C 173.34822 209.28613 200.93288 186.23182 224.03906 172.16016 C 196.51756 189.86668 173.89498 212.47665 154 240.32031 L 154 307.05273 L 176.5 329.55273 L 176.5 372.48633 L 167.23438 381.75391 L 155.76562 370.28516 L 166.49805 359.55273 L 166.49805 337.48047 L 144 314.98438 L 144 164.30469 C 187.45837 161.75143 214.25781 119.00795 214.25781 61.921875 z "
         transform="matrix(0,-0.26458333,0.26458333,0,26.849998,225.29792)"
         id="path4679" />
    </g>
    <circle
       id="path122"
       cx="20.769787"
       cy="112.7177"
       r="0.47955728"
       style="fill:#ffffff;stroke:none;stroke-width:0.33072916"
       inkscape:export-xdpi="96"
       inkscape:export-ydpi="96" />
    <path
       id="circle4473"
       style="fill:#ffffff;stroke:none;stroke-width:0.22133839"
       d="m 59.879037,145.12917 a 0.61237794,0.61237794 0 0 1 -0.612378,0.61237 0.61237794,0.61237794 0 0 1 -0.612378,-0.61237 0.61237794,0.61237794 0 0 1 0.612378,-0.61238 0.61237794,0.61237794 0 0 1 0.612378,0.61238 z m 2.645843,-3.96875 a 0.61237794,0.61237794 0 0 1 -0.612378,0.61237 0.61237794,0.61237794 0 0 1 -0.612378,-0.61237 0.61237794,0.61237794 0 0 1 0.612378,-0.61238 0.61237794,0.61237794 0 0 1 0.612378,0.61238 z m -3.96875,-3.96875 a 0.61237794,0.61237794 0 0 1 -0.612378,0.61237 0.61237794,0.61237794 0 0 1 -0.612378,-0.61237 0.61237794,0.61237794 0 0 1 0.612378,-0.61238 0.61237794,0.61237794 0 0 1 0.612378,0.61238 z m -5.291672,-7.9375 a 0.61237794,0.61237794 0 0 1 -0.612377,0.61237 0.61237794,0.61237794 0 0 1 -0.612378,-0.61237 0.61237794,0.61237794 0 0 1 0.612378,-0.61238 0.61237794,0.61237794 0 0 1 0.612377,0.61238 z m 9.260422,-1.32292 a 0.61237794,0.61237794 0 0 1 -0.612378,0.61238 0.61237794,0.61237794 0 0 1 -0.612378,-0.61238 0.61237794,0.61237794 0 0 1 0.612378,-0.61238 0.61237794,0.61237794 0 0 1 0.612378,0.61238 z m 0,-9.26042 a 0.61237794,0.61237794 0 0 1 -0.612378,0.61238 0.61237794,0.61237794 0 0 1 -0.612378,-0.61238 0.61237794,0.61237794 0 0 1 0.612378,-0.61238 0.61237794,0.61237794 0 0 1 0.612378,0.61238 z M 61.201958,96.181252 a 0.61237794,0.61237794 0 0 1 -0.612377,0.612377 0.61237794,0.61237794 0 0 1 -0.612378,-0.612377 0.61237794,0.61237794 0 0 1 0.612378,-0.612378 0.61237794,0.61237794 0 0 1 0.612377,0.612378 z M 51.941537,90.88958 a 0.61237794,0.61237794 0 0 1 -0.612378,0.612378 0.61237794,0.61237794 0 0 1 -0.612378,-0.612378 0.61237794,0.61237794 0 0 1 0.612378,-0.612378 0.61237794,0.61237794 0 0 1 0.612378,0.612378 z M 18.868615,86.92083 a 0.61237794,0.61237794 0 0 1 -0.612378,0.612378 0.61237794,0.61237794 0 0 1 -0.612378,-0.612378 0.61237794,0.61237794 0 0 1 0.612378,-0.612378 0.61237794,0.61237794 0 0 1 0.612378,0.612378 z m -6.614564,3.96875 a 0.61237794,0.61237794 0 0 1 -0.612378,0.612378 0.61237794,0.61237794 0 0 1 -0.612378,-0.612378 0.61237794,0.61237794 0 0 1 0.612378,-0.612378 0.61237794,0.61237794 0 0 1 0.612378,0.612378 z m 0,3.96875 a 0.61237794,0.61237794 0 0 1 -0.612378,0.612378 0.61237794,0.61237794 0 0 1 -0.612378,-0.612378 0.61237794,0.61237794 0 0 1 0.612378,-0.612378 0.61237794,0.61237794 0 0 1 0.612378,0.612378 z m 0,3.96875 a 0.61237794,0.61237794 0 0 1 -0.612378,0.612378 0.61237794,0.61237794 0 0 1 -0.612378,-0.612378 0.61237794,0.61237794 0 0 1 0.612378,-0.612378 0.61237794,0.61237794 0 0 1 0.612378,0.612378 z m 7.937501,19.84375 a 0.61237794,0.61237794 0 0 1 -0.612378,0.61238 0.61237794,0.61237794 0 0 1 -0.612378,-0.61238 0.61237794,0.61237794 0 0 1 0.612378,-0.61238 0.61237794,0.61237794 0 0 1 0.612378,0.61238 z" />
    <g
       transform="translate(26.193747,-72.23125)"
       id="g4775">
      <path
         style="fill:#666666;stroke-width:0.99999994"
         d="m 439.74219,428.16797 c 0,40.22445 26.79963,70.34157 70.25781,72.14062 v 108.66993 l -7.50195,7.50195 v 27.07812 l 15.73828,15.73047 3.52734,-3.53515 -14.26172,-14.26953 V 618.55469 L 515,611.05859 V 500.39258 c -19.89498,-27.84371 -42.51753,-50.45364 -70.03906,-68.16016 23.10621,14.07167 50.6908,37.12597 69.85547,62.9375 -2.45904,-38.83994 -32.30093,-66.82352 -75.07422,-67.00195 z"
         transform="scale(0.26458333)"
         id="path4684"
         inkscape:connector-curvature="0"
         sodipodi:nodetypes="cccccccccccccc"
         inkscape:export-xdpi="96"
         inkscape:export-ydpi="96" />
      <path
         style="fill:#666666;stroke-width:1.19129932"
         d="m 600.25781,345.92188 c -42.77352,0.25317 -72.61522,39.96864 -75.07422,95.08984 19.1647,-36.63141 46.74922,-69.34996 69.85547,-89.32031 -27.52165,25.12888 -50.144,57.21704 -70.03906,96.73242 v 152.63476 l 22.5,22.4961 v 17.93164 l -14.26953,14.26953 3.53711,3.52734 15.73047,-15.73047 V 621.48047 L 530,598.98438 V 448.30469 c 43.45837,-2.55326 70.25781,-45.29673 70.25781,-102.38281 z"
         transform="scale(0.26458333)"
         id="path4686"
         inkscape:connector-curvature="0"
         sodipodi:nodetypes="cccccccccccccc"
         inkscape:export-xdpi="96"
         inkscape:export-ydpi="96" />
      <path
         style="fill:#666666;stroke-width:0.99999994"
         d="m 615.25781,452.0957 c -42.77333,0.1784 -72.61522,28.16202 -75.07422,67.00196 19.16463,-25.81153 46.74929,-48.86583 69.85547,-62.9375 C 582.51753,473.86668 559.89498,496.47665 540,524.32031 v 66.73242 l 22.5,22.5 v 42.9336 l -14.26953,14.26953 3.53711,3.52734 15.73047,-15.73047 v -47.0664 L 545,588.98047 v -64.74414 c 43.45818,-1.79909 70.25781,-31.91617 70.25781,-72.14063 z"
         transform="scale(0.26458333)"
         id="path4688"
         inkscape:connector-curvature="0"
         sodipodi:nodetypes="cccccccccccccc"
         inkscape:export-xdpi="96"
         inkscape:export-ydpi="96" />
      <path
         style="fill:#666666;stroke:none;stroke-width:0.28470626"
         d="m 140.22916,170 h -1.32291 l -17.19816,17.19792 2.5e-4,1.32292 17.19791,17.19791 h 1.32291 l 17.19793,-17.19791 v -1.32292 z"
         id="path4691"
         inkscape:connector-curvature="0"
         sodipodi:nodetypes="ccccccccc"
         inkscape:export-xdpi="96"
         inkscape:export-ydpi="96" />
      <circle
         id="circle4693"
         cx="122.89896"
         cy="187.85938"
         r="0.66145831"
         style="fill:#ffffff;stroke:#666666;stroke-width:0.33072916"
         inkscape:export-xdpi="96"
         inkscape:export-ydpi="96" />
      <path
         style="color:#000000;font-style:normal;font-variant:normal;font-weight:normal;font-stretch:normal;font-size:medium;line-height:normal;font-family:sans-serif;font-variant-ligatures:normal;font-variant-position:normal;font-variant-caps:normal;font-variant-numeric:normal;font-variant-alternates:normal;font-feature-settings:normal;text-indent:0;text-align:start;text-decoration:none;text-decoration-line:none;text-decoration-style:solid;text-decoration-color:#000000;letter-spacing:normal;word-spacing:normal;text-transform:none;writing-mode:lr-tb;direction:ltr;text-orientation:mixed;dominant-baseline:auto;baseline-shift:baseline;text-anchor:start;white-space:normal;shape-padding:0;clip-rule:nonzero;display:inline;overflow:visible;visibility:visible;opacity:1;isolation:auto;mix-blend-mode:normal;color-interpolation:sRGB;color-interpolation-filters:linearRGB;solid-color:#000000;solid-opacity:1;vector-effect:none;fill:#666666;fill-opacity:1;fill-rule:nonzero;stroke:none;stroke-width:1.32299995;stroke-linecap:butt;stroke-linejoin:miter;stroke-miterlimit:4;stroke-dasharray:none;stroke-dashoffset:0;stroke-opacity:1;color-rendering:auto;image-rendering:auto;shape-rendering:auto;text-rendering:auto;enable-background:accumulate"
         d="m 152.79688,166.03125 v 11.63281 l -3.7754,3.77539 0.93555,0.9336 4.16211,-4.16211 v -12.17969 z"
         id="path4695"
         inkscape:connector-curvature="0"
         inkscape:export-xdpi="96"
         inkscape:export-ydpi="96" />
      <path
         style="color:#000000;font-style:normal;font-variant:normal;font-weight:normal;font-stretch:normal;font-size:medium;line-height:normal;font-family:sans-serif;font-variant-ligatures:normal;font-variant-position:normal;font-variant-caps:normal;font-variant-numeric:normal;font-variant-alternates:normal;font-feature-settings:normal;text-indent:0;text-align:start;text-decoration:none;text-decoration-line:none;text-decoration-style:solid;text-decoration-color:#000000;letter-spacing:normal;word-spacing:normal;text-transform:none;writing-mode:lr-tb;direction:ltr;text-orientation:mixed;dominant-baseline:auto;baseline-shift:baseline;text-anchor:start;white-space:normal;shape-padding:0;clip-rule:nonzero;display:inline;overflow:visible;visibility:visible;opacity:1;isolation:auto;mix-blend-mode:normal;color-interpolation:sRGB;color-interpolation-filters:linearRGB;solid-color:#000000;solid-opacity:1;vector-effect:none;fill:#666666;fill-opacity:1;fill-rule:nonzero;stroke:none;stroke-width:1.32299995;stroke-linecap:butt;stroke-linejoin:miter;stroke-miterlimit:4;stroke-dasharray:none;stroke-dashoffset:0;stroke-opacity:1;color-rendering:auto;image-rendering:auto;shape-rendering:auto;text-rendering:auto;enable-background:accumulate"
         d="m 162.52734,170.84375 -5.76172,5.48828 v 5.30078 l -3.77539,3.77539 0.93555,0.9336 4.16211,-4.16211 v -5.28125 l 5.35156,-5.09571 z"
         id="path4697"
         inkscape:connector-curvature="0"
         inkscape:export-xdpi="96"
         inkscape:export-ydpi="96" />
      <path
         style="color:#000000;font-style:normal;font-variant:normal;font-weight:normal;font-stretch:normal;font-size:medium;line-height:normal;font-family:sans-serif;font-variant-ligatures:normal;font-variant-position:normal;font-variant-caps:normal;font-variant-numeric:normal;font-variant-alternates:normal;font-feature-settings:normal;text-indent:0;text-align:start;text-decoration:none;text-decoration-line:none;text-decoration-style:solid;text-decoration-color:#000000;letter-spacing:normal;word-spacing:normal;text-transform:none;writing-mode:lr-tb;direction:ltr;text-orientation:mixed;dominant-baseline:auto;baseline-shift:baseline;text-anchor:start;white-space:normal;shape-padding:0;clip-rule:nonzero;display:inline;overflow:visible;visibility:visible;opacity:1;isolation:auto;mix-blend-mode:normal;color-interpolation:sRGB;color-interpolation-filters:linearRGB;solid-color:#000000;solid-opacity:1;vector-effect:none;fill:#666666;fill-opacity:1;fill-rule:nonzero;stroke:none;stroke-width:1.32299995;stroke-linecap:butt;stroke-linejoin:miter;stroke-miterlimit:4;stroke-dasharray:none;stroke-dashoffset:0;stroke-opacity:1;color-rendering:auto;image-rendering:auto;shape-rendering:auto;text-rendering:auto;enable-background:accumulate"
         d="m 113.77148,169.33789 v 1.32422 h 5.01758 l 2.25782,2.25781 v 9.25977 l 4.1621,4.16211 0.93555,-0.9336 -3.77539,-3.77539 v -9.26172 l -3.0332,-3.0332 z"
         id="path4699"
         inkscape:connector-curvature="0"
         inkscape:export-xdpi="96"
         inkscape:export-ydpi="96" />
      <path
         style="color:#000000;font-style:normal;font-variant:normal;font-weight:normal;font-stretch:normal;font-size:medium;line-height:normal;font-family:sans-serif;font-variant-ligatures:normal;font-variant-position:normal;font-variant-caps:normal;font-variant-numeric:normal;font-variant-alternates:normal;font-feature-settings:normal;text-indent:0;text-align:start;text-decoration:none;text-decoration-line:none;text-decoration-style:solid;text-decoration-color:#000000;letter-spacing:normal;word-spacing:normal;text-transform:none;writing-mode:lr-tb;direction:ltr;text-orientation:mixed;dominant-baseline:auto;baseline-shift:baseline;text-anchor:start;white-space:normal;shape-padding:0;clip-rule:nonzero;display:inline;overflow:visible;visibility:visible;opacity:1;isolation:auto;mix-blend-mode:normal;color-interpolation:sRGB;color-interpolation-filters:linearRGB;solid-color:#000000;solid-opacity:1;vector-effect:none;fill:#666666;fill-opacity:1;fill-rule:nonzero;stroke:none;stroke-width:1.32299995;stroke-linecap:butt;stroke-linejoin:miter;stroke-miterlimit:4;stroke-dasharray:none;stroke-dashoffset:0;stroke-opacity:1;color-rendering:auto;image-rendering:auto;shape-rendering:auto;text-rendering:auto;enable-background:accumulate"
         d="m 113.77148,165.36914 v 1.32422 h 8.98633 l 2.25781,2.25781 v 9.25977 l 4.16211,4.16211 0.93555,-0.9336 -3.77539,-3.77539 v -9.26172 l -3.0332,-3.0332 z"
         id="path4701"
         inkscape:connector-curvature="0"
         inkscape:export-xdpi="96"
         inkscape:export-ydpi="96" />
      <path
         style="color:#000000;font-style:normal;font-variant:normal;font-weight:normal;font-stretch:normal;font-size:medium;line-height:normal;font-family:sans-serif;font-variant-ligatures:normal;font-variant-position:normal;font-variant-caps:normal;font-variant-numeric:normal;font-variant-alternates:normal;font-feature-settings:normal;text-indent:0;text-align:start;text-decoration:none;text-decoration-line:none;text-decoration-style:solid;text-decoration-color:#000000;letter-spacing:normal;word-spacing:normal;text-transform:none;writing-mode:lr-tb;direction:ltr;text-orientation:mixed;dominant-baseline:auto;baseline-shift:baseline;text-anchor:start;white-space:normal;shape-padding:0;clip-rule:nonzero;display:inline;overflow:visible;visibility:visible;opacity:1;isolation:auto;mix-blend-mode:normal;color-interpolation:sRGB;color-interpolation-filters:linearRGB;solid-color:#000000;solid-opacity:1;vector-effect:none;fill:#666666;fill-opacity:1;fill-rule:nonzero;stroke:none;stroke-width:1.32299995;stroke-linecap:butt;stroke-linejoin:miter;stroke-miterlimit:4;stroke-dasharray:none;stroke-dashoffset:0;stroke-opacity:1;color-rendering:auto;image-rendering:auto;shape-rendering:auto;text-rendering:auto;enable-background:accumulate"
         d="m 120.38477,161.40039 v 1.32422 h 5.01757 l 3.58204,3.58008 v 7.9375 l 4.1621,4.16211 0.93555,-0.9336 -3.77539,-3.77539 v -7.9375 l -4.35547,-4.35742 z"
         id="path4703"
         inkscape:connector-curvature="0"
         inkscape:export-xdpi="96"
         inkscape:export-ydpi="96" />
      <path
         style="color:#000000;font-style:normal;font-variant:normal;font-weight:normal;font-stretch:normal;font-size:medium;line-height:normal;font-family:sans-serif;font-variant-ligatures:normal;font-variant-position:normal;font-variant-caps:normal;font-variant-numeric:normal;font-variant-alternates:normal;font-feature-settings:normal;text-indent:0;text-align:start;text-decoration:none;text-decoration-line:none;text-decoration-style:solid;text-decoration-color:#000000;letter-spacing:normal;word-spacing:normal;text-transform:none;writing-mode:lr-tb;direction:ltr;text-orientation:mixed;dominant-baseline:auto;baseline-shift:baseline;text-anchor:start;white-space:normal;shape-padding:0;clip-rule:nonzero;display:inline;overflow:visible;visibility:visible;opacity:1;isolation:auto;mix-blend-mode:normal;color-interpolation:sRGB;color-interpolation-filters:linearRGB;solid-color:#000000;solid-opacity:1;vector-effect:none;fill:#666666;fill-opacity:1;fill-rule:nonzero;stroke:none;stroke-width:1.32299995;stroke-linecap:butt;stroke-linejoin:miter;stroke-miterlimit:4;stroke-dasharray:none;stroke-dashoffset:0;stroke-opacity:1;color-rendering:auto;image-rendering:auto;shape-rendering:auto;text-rendering:auto;enable-background:accumulate"
         d="m 137.11523,201.2832 -4.16211,4.16211 v 5.83985 l 5.67969,5.67773 h 25.40821 v -1.32227 h -24.86133 l -4.9043,-4.90429 v -4.74414 l 3.77539,-3.77539 z"
         id="path4705"
         inkscape:connector-curvature="0"
         inkscape:export-xdpi="96"
         inkscape:export-ydpi="96" />
      <path
         style="color:#000000;font-style:normal;font-variant:normal;font-weight:normal;font-stretch:normal;font-size:medium;line-height:normal;font-family:sans-serif;font-variant-ligatures:normal;font-variant-position:normal;font-variant-caps:normal;font-variant-numeric:normal;font-variant-alternates:normal;font-feature-settings:normal;text-indent:0;text-align:start;text-decoration:none;text-decoration-line:none;text-decoration-style:solid;text-decoration-color:#000000;letter-spacing:normal;word-spacing:normal;text-transform:none;writing-mode:lr-tb;direction:ltr;text-orientation:mixed;dominant-baseline:auto;baseline-shift:baseline;text-anchor:start;white-space:normal;shape-padding:0;clip-rule:nonzero;display:inline;overflow:visible;visibility:visible;opacity:1;isolation:auto;mix-blend-mode:normal;color-interpolation:sRGB;color-interpolation-filters:linearRGB;solid-color:#000000;solid-opacity:1;vector-effect:none;fill:#666666;fill-opacity:1;fill-rule:nonzero;stroke:none;stroke-width:1.32299995;stroke-linecap:butt;stroke-linejoin:miter;stroke-miterlimit:4;stroke-dasharray:none;stroke-dashoffset:0;stroke-opacity:1;color-rendering:auto;image-rendering:auto;shape-rendering:auto;text-rendering:auto;enable-background:accumulate"
         d="m 133.14648,197.31445 -4.1621,4.16211 v 11.13086 l 8.32421,8.32422 h 24.08789 v -1.32226 h -23.53906 l -7.55078,-7.55079 v -10.03515 l 3.77539,-3.77539 z"
         id="path4707"
         inkscape:connector-curvature="0"
         inkscape:export-xdpi="96"
         inkscape:export-ydpi="96" />
      <path
         style="color:#000000;font-style:normal;font-variant:normal;font-weight:normal;font-stretch:normal;font-size:medium;line-height:normal;font-family:sans-serif;font-variant-ligatures:normal;font-variant-position:normal;font-variant-caps:normal;font-variant-numeric:normal;font-variant-alternates:normal;font-feature-settings:normal;text-indent:0;text-align:start;text-decoration:none;text-decoration-line:none;text-decoration-style:solid;text-decoration-color:#000000;letter-spacing:normal;word-spacing:normal;text-transform:none;writing-mode:lr-tb;direction:ltr;text-orientation:mixed;dominant-baseline:auto;baseline-shift:baseline;text-anchor:start;white-space:normal;shape-padding:0;clip-rule:nonzero;display:inline;overflow:visible;visibility:visible;opacity:1;isolation:auto;mix-blend-mode:normal;color-interpolation:sRGB;color-interpolation-filters:linearRGB;solid-color:#000000;solid-opacity:1;vector-effect:none;fill:#666666;fill-opacity:1;fill-rule:nonzero;stroke:none;stroke-width:1.32299995;stroke-linecap:butt;stroke-linejoin:miter;stroke-miterlimit:4;stroke-dasharray:none;stroke-dashoffset:0;stroke-opacity:1;color-rendering:auto;image-rendering:auto;shape-rendering:auto;text-rendering:auto;enable-background:accumulate"
         d="m 113.77148,173.30664 v 1.32422 h 1.04883 l 2.25781,2.25781 v 18.52149 l 3.03321,3.0332 h 5.83984 l 4.16211,-4.16406 -0.93555,-0.9336 -3.77539,3.77344 h -4.74218 l -2.25977,-2.25781 v -18.52149 l -3.0332,-3.0332 z"
         id="path4709"
         inkscape:connector-curvature="0"
         inkscape:export-xdpi="96"
         inkscape:export-ydpi="96" />
      <path
         inkscape:connector-curvature="0"
         style="color:#000000;font-style:normal;font-variant:normal;font-weight:normal;font-stretch:normal;font-size:medium;line-height:normal;font-family:sans-serif;font-variant-ligatures:normal;font-variant-position:normal;font-variant-caps:normal;font-variant-numeric:normal;font-variant-alternates:normal;font-feature-settings:normal;text-indent:0;text-align:start;text-decoration:none;text-decoration-line:none;text-decoration-style:solid;text-decoration-color:#000000;letter-spacing:normal;word-spacing:normal;text-transform:none;writing-mode:lr-tb;direction:ltr;text-orientation:mixed;dominant-baseline:auto;baseline-shift:baseline;text-anchor:start;white-space:normal;shape-padding:0;clip-rule:nonzero;display:inline;overflow:visible;visibility:visible;opacity:1;isolation:auto;mix-blend-mode:normal;color-interpolation:sRGB;color-interpolation-filters:linearRGB;solid-color:#000000;solid-opacity:1;vector-effect:none;fill:#666666;fill-opacity:1;fill-rule:nonzero;stroke:none;stroke-width:5.00031471;stroke-linecap:butt;stroke-linejoin:miter;stroke-miterlimit:4;stroke-dasharray:none;stroke-dashoffset:0;stroke-opacity:1;color-rendering:auto;image-rendering:auto;shape-rendering:auto;text-rendering:auto;enable-background:accumulate"
         d="m 473.23047,715.75586 -15,15 3.53711,3.52734 15,-15 z"
         transform="scale(0.26458333)"
         id="path4711"
         inkscape:export-xdpi="96"
         inkscape:export-ydpi="96" />
      <g
         id="g4721"
         transform="rotate(90,139.56771,187.85938)"
         style="stroke:#666666"
         inkscape:export-xdpi="96"
         inkscape:export-ydpi="96">
        <path
           style="color:#000000;font-style:normal;font-variant:normal;font-weight:normal;font-stretch:normal;font-size:medium;line-height:normal;font-family:sans-serif;font-variant-ligatures:normal;font-variant-position:normal;font-variant-caps:normal;font-variant-numeric:normal;font-variant-alternates:normal;font-feature-settings:normal;text-indent:0;text-align:start;text-decoration:none;text-decoration-line:none;text-decoration-style:solid;text-decoration-color:#000000;letter-spacing:normal;word-spacing:normal;text-transform:none;writing-mode:lr-tb;direction:ltr;text-orientation:mixed;dominant-baseline:auto;baseline-shift:baseline;text-anchor:start;white-space:normal;shape-padding:0;clip-rule:nonzero;display:inline;overflow:visible;visibility:visible;opacity:1;isolation:auto;mix-blend-mode:normal;color-interpolation:sRGB;color-interpolation-filters:linearRGB;solid-color:#000000;solid-opacity:1;vector-effect:none;fill:#666666;fill-opacity:1;fill-rule:nonzero;stroke:none;stroke-width:1.32299995;stroke-linecap:butt;stroke-linejoin:miter;stroke-miterlimit:4;stroke-dasharray:none;stroke-dashoffset:0;stroke-opacity:1;color-rendering:auto;image-rendering:auto;shape-rendering:auto;text-rendering:auto;enable-background:accumulate"
           d="m 144.85938,163.38477 v 1.32421 5.01758 l -3.7754,3.77539 0.93555,0.9336 4.16211,-4.16211 v -5.56446 -1.32421 z"
           id="path4713"
           inkscape:connector-curvature="0" />
        <path
           style="color:#000000;font-style:normal;font-variant:normal;font-weight:normal;font-stretch:normal;font-size:medium;line-height:normal;font-family:sans-serif;font-variant-ligatures:normal;font-variant-position:normal;font-variant-caps:normal;font-variant-numeric:normal;font-variant-alternates:normal;font-feature-settings:normal;text-indent:0;text-align:start;text-decoration:none;text-decoration-line:none;text-decoration-style:solid;text-decoration-color:#000000;letter-spacing:normal;word-spacing:normal;text-transform:none;writing-mode:lr-tb;direction:ltr;text-orientation:mixed;dominant-baseline:auto;baseline-shift:baseline;text-anchor:start;white-space:normal;shape-padding:0;clip-rule:nonzero;display:inline;overflow:visible;visibility:visible;opacity:1;isolation:auto;mix-blend-mode:normal;color-interpolation:sRGB;color-interpolation-filters:linearRGB;solid-color:#000000;solid-opacity:1;vector-effect:none;fill:#666666;fill-opacity:1;fill-rule:nonzero;stroke:none;stroke-width:1.32299995;stroke-linecap:butt;stroke-linejoin:miter;stroke-miterlimit:4;stroke-dasharray:none;stroke-dashoffset:0;stroke-opacity:1;color-rendering:auto;image-rendering:auto;shape-rendering:auto;text-rendering:auto;enable-background:accumulate"
           d="m 154.31445,162.91797 -5.48633,5.48437 v 5.29297 l -3.77539,3.77539 0.93555,0.9336 4.16211,-4.16211 v -5.29102 l 5.09766,-5.09765 z"
           id="path4715"
           inkscape:connector-curvature="0" />
        <path
           style="color:#000000;font-style:normal;font-variant:normal;font-weight:normal;font-stretch:normal;font-size:medium;line-height:normal;font-family:sans-serif;font-variant-ligatures:normal;font-variant-position:normal;font-variant-caps:normal;font-variant-numeric:normal;font-variant-alternates:normal;font-feature-settings:normal;text-indent:0;text-align:start;text-decoration:none;text-decoration-line:none;text-decoration-style:solid;text-decoration-color:#000000;letter-spacing:normal;word-spacing:normal;text-transform:none;writing-mode:lr-tb;direction:ltr;text-orientation:mixed;dominant-baseline:auto;baseline-shift:baseline;text-anchor:start;white-space:normal;shape-padding:0;clip-rule:nonzero;display:inline;overflow:visible;visibility:visible;opacity:1;isolation:auto;mix-blend-mode:normal;color-interpolation:sRGB;color-interpolation-filters:linearRGB;solid-color:#000000;solid-opacity:1;vector-effect:none;fill:#666666;fill-opacity:1;fill-rule:nonzero;stroke:none;stroke-width:1.32299995;stroke-linecap:butt;stroke-linejoin:miter;stroke-miterlimit:4;stroke-dasharray:none;stroke-dashoffset:0;stroke-opacity:1;color-rendering:auto;image-rendering:auto;shape-rendering:auto;text-rendering:auto;enable-background:accumulate"
           d="m 155.63672,172.17773 -2.83984,2.83985 v 2.64648 l -3.7754,3.77539 0.93555,0.9336 4.16211,-4.16211 v -2.64453 l 2.45313,-2.45313 z"
           id="path4717"
           inkscape:connector-curvature="0" />
        <path
           style="color:#000000;font-style:normal;font-variant:normal;font-weight:normal;font-stretch:normal;font-size:medium;line-height:normal;font-family:sans-serif;font-variant-ligatures:normal;font-variant-position:normal;font-variant-caps:normal;font-variant-numeric:normal;font-variant-alternates:normal;font-feature-settings:normal;text-indent:0;text-align:start;text-decoration:none;text-decoration-line:none;text-decoration-style:solid;text-decoration-color:#000000;letter-spacing:normal;word-spacing:normal;text-transform:none;writing-mode:lr-tb;direction:ltr;text-orientation:mixed;dominant-baseline:auto;baseline-shift:baseline;text-anchor:start;white-space:normal;shape-padding:0;clip-rule:nonzero;display:inline;overflow:visible;visibility:visible;opacity:1;isolation:auto;mix-blend-mode:normal;color-interpolation:sRGB;color-interpolation-filters:linearRGB;solid-color:#000000;solid-opacity:1;vector-effect:none;fill:#666666;fill-opacity:1;fill-rule:nonzero;stroke:none;stroke-width:1.32299995;stroke-linecap:butt;stroke-linejoin:miter;stroke-miterlimit:4;stroke-dasharray:none;stroke-dashoffset:0;stroke-opacity:1;color-rendering:auto;image-rendering:auto;shape-rendering:auto;text-rendering:auto;enable-background:accumulate"
           d="m 163.38086,167.35352 v 11.63281 l -2.25977,2.25781 h -3.96875 l -4.16211,4.16406 0.93555,0.9336 3.77539,-3.77344 h 3.96875 l 3.0332,-3.0332 v -12.18164 z"
           id="path4719"
           inkscape:connector-curvature="0" />
      </g>
      <circle
         style="fill:#666666;stroke:none;stroke-width:1.32300007;stroke-linejoin:miter;stroke-miterlimit:4;stroke-dasharray:none"
         id="circle4723"
         cx="153.45833"
         cy="166.03125"
         r="1.3229166"
         inkscape:export-xdpi="96"
         inkscape:export-ydpi="96" />
      <circle
         r="1.3229166"
         cy="162.0625"
         cx="120.38541"
         id="circle4725"
         style="fill:#666666;stroke:none;stroke-width:1.32300007;stroke-linejoin:miter;stroke-miterlimit:4;stroke-dasharray:none"
         inkscape:export-xdpi="96"
         inkscape:export-ydpi="96" />
      <circle
         style="fill:#666666;stroke:none;stroke-width:1.32300007;stroke-linejoin:miter;stroke-miterlimit:4;stroke-dasharray:none"
         id="circle4727"
         cx="121.70834"
         cy="193.8125"
         r="1.3229166"
         inkscape:export-xdpi="96"
         inkscape:export-ydpi="96" />
      <circle
         style="fill:#666666;stroke:none;stroke-width:1.32300007;stroke-linejoin:miter;stroke-miterlimit:4;stroke-dasharray:none"
         id="circle4729"
         cx="113.77084"
         cy="166.03125"
         r="1.3229166"
         inkscape:export-xdpi="96"
         inkscape:export-ydpi="96" />
      <circle
         r="1.3229166"
         cy="170"
         cx="113.77084"
         id="circle4731"
         style="fill:#666666;stroke:none;stroke-width:1.32300007;stroke-linejoin:miter;stroke-miterlimit:4;stroke-dasharray:none"
         inkscape:export-xdpi="96"
         inkscape:export-ydpi="96" />
      <circle
         style="fill:#666666;stroke:none;stroke-width:1.32300007;stroke-linejoin:miter;stroke-miterlimit:4;stroke-dasharray:none"
         id="circle4733"
         cx="113.77084"
         cy="173.96875"
         r="1.3229166"
         inkscape:export-xdpi="96"
         inkscape:export-ydpi="96" />
      <circle
         r="1.3229166"
         cy="204.39583"
         cx="154.78125"
         id="circle4735"
         style="fill:#666666;stroke:none;stroke-width:1.32300007;stroke-linejoin:miter;stroke-miterlimit:4;stroke-dasharray:none"
         inkscape:export-xdpi="96"
         inkscape:export-ydpi="96" />
      <circle
         style="fill:#666666;stroke:none;stroke-width:1.32300007;stroke-linejoin:miter;stroke-miterlimit:4;stroke-dasharray:none"
         id="circle4737"
         cx="160.07292"
         cy="212.33333"
         r="1.3229166"
         inkscape:export-xdpi="96"
         inkscape:export-ydpi="96" />
      <circle
         r="1.3229166"
         cy="216.30208"
         cx="164.04167"
         id="circle4739"
         style="fill:#666666;stroke:none;stroke-width:1.32300007;stroke-linejoin:miter;stroke-miterlimit:4;stroke-dasharray:none"
         inkscape:export-xdpi="96"
         inkscape:export-ydpi="96" />
      <circle
         style="fill:#666666;stroke:none;stroke-width:1.32300007;stroke-linejoin:miter;stroke-miterlimit:4;stroke-dasharray:none"
         id="circle4741"
         cx="161.39583"
         cy="220.27083"
         r="1.3229166"
         inkscape:export-xdpi="96"
         inkscape:export-ydpi="96" />
      <circle
         style="fill:#666666;stroke:none;stroke-width:1.32300007;stroke-linejoin:miter;stroke-miterlimit:4;stroke-dasharray:none"
         id="circle4743"
         cx="162.71875"
         cy="171.32292"
         r="1.3229166"
         inkscape:export-xdpi="96"
         inkscape:export-ydpi="96" />
      <circle
         r="1.3229166"
         cy="193.8125"
         cx="164.04167"
         id="circle4745"
         style="fill:#666666;stroke:none;stroke-width:1.32300007;stroke-linejoin:miter;stroke-miterlimit:4;stroke-dasharray:none"
         inkscape:export-xdpi="96"
         inkscape:export-ydpi="96" />
      <circle
         style="fill:#666666;stroke:none;stroke-width:1.32300007;stroke-linejoin:miter;stroke-miterlimit:4;stroke-dasharray:none"
         id="circle4747"
         cx="164.04167"
         cy="203.07292"
         r="1.3229166"
         inkscape:export-xdpi="96"
         inkscape:export-ydpi="96" />
      <circle
         style="fill:#ffffff;stroke:none;stroke-width:0.22133839"
         id="circle4749"
         cx="121.70834"
         cy="193.8125"
         r="0.61237794"
         inkscape:export-xdpi="96"
         inkscape:export-ydpi="96" />
      <circle
         r="0.61237794"
         cy="173.96875"
         cx="113.77084"
         id="circle4751"
         style="fill:#ffffff;stroke:none;stroke-width:0.22133839"
         inkscape:export-xdpi="96"
         inkscape:export-ydpi="96" />
      <circle
         style="fill:#ffffff;stroke:none;stroke-width:0.22133839"
         id="circle4753"
         cx="113.77084"
         cy="170"
         r="0.61237794"
         inkscape:export-xdpi="96"
         inkscape:export-ydpi="96" />
      <circle
         r="0.61237794"
         cy="166.03125"
         cx="113.77084"
         id="circle4755"
         style="fill:#ffffff;stroke:none;stroke-width:0.22133839"
         inkscape:export-xdpi="96"
         inkscape:export-ydpi="96" />
      <circle
         style="fill:#ffffff;stroke:none;stroke-width:0.22133839"
         id="circle4757"
         cx="120.38541"
         cy="162.0625"
         r="0.61237794"
         inkscape:export-xdpi="96"
         inkscape:export-ydpi="96" />
      <circle
         r="0.61237794"
         cy="166.03125"
         cx="153.45833"
         id="circle4759"
         style="fill:#ffffff;stroke:none;stroke-width:0.22133839"
         inkscape:export-xdpi="96"
         inkscape:export-ydpi="96" />
      <circle
         style="fill:#ffffff;stroke:none;stroke-width:0.22133839"
         id="circle4761"
         cx="162.71875"
         cy="171.32292"
         r="0.61237794"
         inkscape:export-xdpi="96"
         inkscape:export-ydpi="96" />
      <circle
         r="0.61237794"
         cy="193.8125"
         cx="164.04167"
         id="circle4763"
         style="fill:#ffffff;stroke:none;stroke-width:0.22133839"
         inkscape:export-xdpi="96"
         inkscape:export-ydpi="96" />
      <circle
         style="fill:#ffffff;stroke:none;stroke-width:0.22133839"
         id="circle4765"
         cx="164.04167"
         cy="203.07292"
         r="0.61237794"
         inkscape:export-xdpi="96"
         inkscape:export-ydpi="96" />
      <circle
         r="0.61237794"
         cy="204.39583"
         cx="154.78125"
         id="circle4767"
         style="fill:#ffffff;stroke:none;stroke-width:0.22133839"
         inkscape:export-xdpi="96"
         inkscape:export-ydpi="96" />
      <circle
         style="fill:#ffffff;stroke:none;stroke-width:0.22133839"
         id="circle4769"
         cx="160.07292"
         cy="212.33333"
         r="0.61237794"
         inkscape:export-xdpi="96"
         inkscape:export-ydpi="96" />
      <circle
         r="0.61237794"
         cy="216.30208"
         cx="164.04167"
         id="circle4771"
         style="fill:#ffffff;stroke:none;stroke-width:0.22133839"
         inkscape:export-xdpi="96"
         inkscape:export-ydpi="96" />
      <circle
         style="fill:#ffffff;stroke:none;stroke-width:0.22133839"
         id="circle4773"
         cx="161.39583"
         cy="220.27083"
         r="0.61237794"
         inkscape:export-xdpi="96"
         inkscape:export-ydpi="96" />
    </g>
    <flowRoot
       xml:space="preserve"
       id="flowRoot4777"
       style="font-style:normal;font-weight:normal;font-size:40px;line-height:1.25;font-family:sans-serif;letter-spacing:0px;word-spacing:0px;fill:#000000;fill-opacity:1;stroke:none"
       transform="scale(0.26458333)"><flowRegion
         id="flowRegion4779"><rect
           id="rect4781"
           width="175"
           height="73"
           x="547"
           y="605.51971" /></flowRegion><flowPara
         id="flowPara4783">RAW</flowPara></flowRoot>    <flowRoot
       xml:space="preserve"
       id="flowRoot4785"
       style="font-style:normal;font-weight:normal;font-size:40px;line-height:1.25;font-family:sans-serif;letter-spacing:0px;word-spacing:0px;fill:#000000;fill-opacity:1;stroke:none"
       transform="scale(0.26458333)"><flowRegion
         id="flowRegion4787"><rect
           id="rect4789"
           width="219"
           height="83"
           x="36"
           y="601.51971" /></flowRegion><flowPara
         id="flowPara4791">Processed</flowPara><flowPara
         id="flowPara4793" /></flowRoot>  </g>
</svg>
